<?xml version="1.0" encoding="utf-8"?>
<!-- Generator: Adobe Illustrator 27.5.0, SVG Export Plug-In . SVG Version: 6.00 Build 0)  -->
<svg version="1.1" xmlns="http://www.w3.org/2000/svg" xmlns:xlink="http://www.w3.org/1999/xlink" x="0px" y="0px"
	 viewBox="0 0 500 500" style="enable-background:new 0 0 500 500;" xml:space="preserve">
<g id="Floor">
	<path style="fill:#F5F5F5;" d="M405.195,255.092c-88.41-51.043-231.282-51.043-319.117,0.001
		c-87.841,51.047-87.375,133.804,1.035,184.848c88.415,51.047,231.288,51.046,319.128-0.002
		C494.076,388.896,493.61,306.139,405.195,255.092z"/>
</g>
<g id="Shadows_1_">
	<path style="fill:#E6E6E6;" d="M441.754,354.442c7.92-4.573,20.718-4.572,28.586,0c7.869,4.573,7.827,11.986-0.093,16.559
		c-7.92,4.573-20.719,4.573-28.587,0C433.792,366.429,433.833,359.015,441.754,354.442z"/>
	<path style="fill:#E6E6E6;" d="M51.421,419.461c21.045-12.15,55.054-12.15,75.963,0c20.91,12.151,20.799,31.851-0.246,44.001
		c-21.046,12.151-55.056,12.151-75.965,0C30.263,451.312,30.374,431.612,51.421,419.461z"/>
	<path style="fill:#E6E6E6;" d="M143.003,316.506c-19.837-11.453-51.893-11.452-71.6,0c-19.709,11.454-19.604,30.022,0.232,41.474
		c19.838,11.453,51.894,11.453,71.603,0C162.946,346.527,162.841,327.959,143.003,316.506z"/>
	<path style="fill:#E6E6E6;" d="M180.081,401.995c22.27-12.858,58.258-12.857,80.384,0c22.126,12.858,22.009,33.704-0.261,46.562
		c-22.271,12.858-58.26,12.858-80.386,0C157.693,435.699,157.81,414.853,180.081,401.995z"/>
	<polygon style="fill:#E6E6E6;" points="172.439,272.192 419.08,413.604 431.731,406.23 185.032,264.852 	"/>
</g>
<g id="Lamp">
	<g id="freepik--light-bulb--inject-77_2_">
		<g id="freepik--Idea--inject-77_2_">
			<g id="freepik--light--inject-77_2_">
				<path style="fill:#37474F;" d="M93.136,84.629c0.647,1.524-0.064,3.284-1.587,3.931c-1.524,0.647-3.284-0.064-3.931-1.588
					c-0.646-1.521,0.062-3.279,1.582-3.928c1.522-0.65,3.284,0.057,3.934,1.579C93.134,84.625,93.135,84.627,93.136,84.629z"/>
				<path style="fill:#455A64;" d="M87.114,87.415c-2.279-0.277-3.011-1.989-1.626-3.831c1.638-1.94,4.102-2.984,6.635-2.808
					c2.272,0.284,3.004,1.996,1.619,3.824C92.109,86.542,89.646,87.588,87.114,87.415z"/>
				<path style="fill:#37474F;" d="M86.588,86.466c-2.351-0.293-3.103-2.056-1.681-3.948c1.69-1.998,4.228-3.076,6.84-2.904
					c2.351,0.293,3.103,2.056,1.667,3.948C91.736,85.567,89.198,86.648,86.588,86.466z"/>
				<path style="fill:#455A64;" d="M86.056,85.494c-2.416-0.302-3.188-2.115-1.687-4.027c1.733-2.054,4.34-3.161,7.021-2.979
					c2.423,0.295,3.203,2.116,1.736,4.065C91.373,84.603,88.747,85.695,86.056,85.494z"/>
				<path style="fill:#37474F;" d="M85.481,84.464c-2.488-0.303-3.28-2.183-1.77-4.188c1.788-2.127,4.482-3.275,7.255-3.089
					c2.495,0.311,3.295,2.183,1.777,4.195C90.952,83.507,88.255,84.651,85.481,84.464z"/>
				<path style="fill:#455A64;" d="M84.922,83.405c-2.588-0.349-3.366-2.228-1.818-4.283c1.826-2.174,4.582-3.343,7.415-3.143
					c2.546,0.305,3.359,2.221,1.811,4.275C90.505,82.426,87.753,83.597,84.922,83.405z"/>
				<path style="fill:#BA68C8;" d="M74.949,49.588c-7.263,3.064-10.668,11.435-7.604,18.699c0.008,0.02,0.017,0.04,0.026,0.06
					C71.805,78.8,81.152,76.884,82.958,81.08c0.421,0.781,1.231,1.274,2.119,1.29c2.452,0.168,4.838-0.842,6.424-2.719
					c0.592-0.65,0.793-1.566,0.525-2.404l0,0c-1.791-4.21,6.095-9.607,1.653-20.066c-3.063-7.264-11.434-10.669-18.698-7.606
					C74.97,49.579,74.959,49.584,74.949,49.588z"/>
				<g style="opacity:0.6;">
					<path style="fill:#FFFFFF;" d="M74.949,49.588c-7.263,3.064-10.668,11.435-7.604,18.699c0.008,0.02,0.017,0.04,0.026,0.06
						C71.805,78.8,81.152,76.884,82.958,81.08c0.421,0.781,1.231,1.274,2.119,1.29c2.452,0.168,4.838-0.842,6.424-2.719
						c0.592-0.65,0.793-1.566,0.525-2.404l0,0c-1.791-4.21,6.095-9.607,1.653-20.066c-3.063-7.264-11.434-10.669-18.698-7.606
						C74.97,49.579,74.959,49.584,74.949,49.588z"/>
				</g>
				<path style="fill:#BA68C8;" d="M85.659,81.49c-1.631-0.233-2.194-1.443-1.219-2.754c1.195-1.413,2.99-2.174,4.836-2.05
					c1.632,0.233,2.187,1.45,1.182,2.79C89.269,80.869,87.488,81.617,85.659,81.49z"/>
				<path style="fill:#FFFFFF;" d="M89.094,78.001c-0.241,0.099-0.518-0.009-0.629-0.246c-1.062-2.537-1.82-5.191-2.259-7.906
					c-0.133-0.784-0.211-1.576-0.233-2.371c-0.465,0.022-0.931-0.006-1.39-0.083c-0.833-0.128-1.642-0.383-2.398-0.756
					c-0.263,0.787-0.64,1.531-1.119,2.209c-0.267,0.376-0.573,0.725-0.911,1.039c0.556,0.571,1.074,1.178,1.551,1.818
					c1.654,2.204,3.036,4.6,4.116,7.135c0.095,0.249-0.027,0.528-0.274,0.628c-0.249,0.095-0.529-0.027-0.628-0.274
					c-1.06-2.45-2.402-4.769-3.999-6.908c-0.468-0.637-0.985-1.237-1.544-1.796c-0.826,0.559-1.874,0.68-2.806,0.324
					c-0.711-0.271-1.123-1.015-0.976-1.761c0.096-0.515,0.493-0.921,1.005-1.029c1.078-0.035,2.118,0.406,2.842,1.206
					c0.309-0.281,0.585-0.596,0.822-0.94c0.469-0.653,0.829-1.378,1.067-2.146c-0.857-0.475-1.48-1.283-1.722-2.233
					c-0.089-0.602,0.255-1.183,0.826-1.394c0.546-0.265,1.203-0.107,1.571,0.376c0.521,0.83,0.673,1.84,0.418,2.786
					c0.715,0.363,1.483,0.61,2.276,0.731c0.412,0.063,0.83,0.08,1.246,0.051c-0.062-1.076,0.344-2.126,1.113-2.88
					c0.442-0.285,1.013-0.271,1.442,0.034c0.643,0.406,0.894,1.22,0.59,1.918c-0.39,0.917-1.202,1.587-2.177,1.795
					c0.012,0.792,0.083,1.582,0.212,2.363c0.433,2.635,1.174,5.211,2.207,7.674c0.108,0.246-0.001,0.532-0.246,0.643L89.094,78.001z
					 M76.743,69.014c-0.105,0.05-0.174,0.154-0.179,0.27c-0.096,0.387,0.296,0.606,0.417,0.659c0.536,0.196,1.132,0.144,1.626-0.142
					c-0.477-0.487-1.118-0.779-1.798-0.821L76.743,69.014z M86.982,66.29c0.549-0.168,0.997-0.565,1.23-1.089
					c0.039-0.122,0.164-0.551-0.177-0.761c-0.199-0.12-0.308-0.072-0.389-0.023C87.368,64.598,87.079,65.211,86.982,66.29z
					 M80.854,63.443c-0.176,0.039-0.287,0.214-0.247,0.389c0,0,0,0.001,0,0.001c0.156,0.54,0.501,1.006,0.972,1.314
					c0.099-0.552,0-1.121-0.28-1.608c-0.095-0.153-0.296-0.201-0.449-0.106c-0.001,0.001-0.002,0.001-0.003,0.002L80.854,63.443z"/>
			</g>
			<path style="fill:#E0E0E0;" d="M72.917,44.565c-0.062,0.056-0.134,0.101-0.212,0.132c-0.475,0.202-1.024-0.017-1.229-0.49
				l-1.929-4.473c-0.206-0.469,0.007-1.016,0.476-1.223c0.005-0.002,0.009-0.004,0.014-0.006c0.475-0.202,1.024,0.017,1.229,0.49
				l1.929,4.473C73.359,43.855,73.245,44.303,72.917,44.565z"/>
			<path style="fill:#E0E0E0;" d="M64.482,51.247c-0.328,0.264-0.794,0.274-1.133,0.024l-3.913-2.904
				c-0.395-0.335-0.445-0.926-0.11-1.322c0.305-0.361,0.831-0.438,1.227-0.181l3.905,2.897c0.414,0.309,0.5,0.895,0.193,1.31
				C64.607,51.139,64.549,51.199,64.482,51.247z"/>
			<path style="fill:#E0E0E0;" d="M60.527,61.25c-0.194,0.161-0.447,0.233-0.697,0.2l-4.847-0.561
				c-0.511-0.058-0.88-0.517-0.827-1.029c0.064-0.514,0.528-0.882,1.043-0.826l4.84,0.553c0.511,0.062,0.877,0.524,0.819,1.036
				C60.836,60.868,60.717,61.094,60.527,61.25z"/>
			<path style="fill:#E0E0E0;" d="M62.087,71.894c-0.049,0.066-0.109,0.123-0.177,0.169l-4.473,1.929
				c-0.462,0.207-1.005,0.001-1.213-0.462c-0.003-0.007-0.006-0.014-0.009-0.021c-0.209-0.468,0-1.016,0.468-1.226
				c0.003-0.001,0.005-0.002,0.008-0.003l4.452-1.98c0.482-0.189,1.027,0.049,1.216,0.531c0.146,0.372,0.04,0.797-0.265,1.056
				L62.087,71.894z"/>
			<path style="fill:#E0E0E0;" d="M104.72,53.466c-0.049,0.066-0.109,0.123-0.177,0.169l-4.508,1.892
				c-0.473,0.202-1.019-0.017-1.222-0.49c-0.202-0.473,0.018-1.02,0.49-1.222l4.466-1.936c0.482-0.189,1.027,0.049,1.216,0.531
				C105.13,52.783,105.024,53.207,104.72,53.466L104.72,53.466z"/>
			<path style="fill:#E0E0E0;" d="M93.572,46.967c-0.41,0.317-0.999,0.241-1.316-0.169c-0.255-0.33-0.262-0.787-0.017-1.125
				l2.911-3.905c0.298-0.41,0.871-0.501,1.282-0.203c0.005,0.003,0.009,0.007,0.014,0.01c0.414,0.301,0.506,0.881,0.205,1.296
				c-0.002,0.002-0.003,0.004-0.005,0.007l-2.904,3.912C93.692,46.856,93.635,46.916,93.572,46.967z"/>
			<path style="fill:#E0E0E0;" d="M83.569,42.997c-0.405,0.323-0.995,0.256-1.318-0.15c-0.154-0.194-0.225-0.44-0.198-0.686
				l0.603-4.803c0.107-0.507,0.605-0.831,1.112-0.724c0.442,0.093,0.755,0.489,0.744,0.94l-0.568,4.84
				C83.899,42.65,83.765,42.86,83.569,42.997z"/>
		</g>
	</g>
</g>
<g id="Plant">
	<g>
		<g>
			<path style="fill:#FFFFFF;" d="M436.825,328.132L456,328.691l19.175-0.559c0.826,12.949-1.702,26.146-5.188,32.592l-0.014-0.002
				c-0.624,1.414-1.879,2.756-3.796,3.862c-5.658,3.267-14.801,3.267-20.422,0c-1.949-1.133-3.202-2.511-3.793-3.962
				C438.504,354.141,436.003,341.017,436.825,328.132z"/>
			<g>
				<path style="fill:#EBEBEB;" d="M442.486,320.278c-7.513,4.338-7.553,11.37-0.089,15.707c7.464,4.338,19.605,4.338,27.118,0
					c7.512-4.337,7.552-11.37,0.088-15.707C462.139,315.941,449.999,315.941,442.486,320.278z"/>
			</g>
			<g>
				<path style="fill:#E0E0E0;" d="M445.457,322.004c-5.862,3.384-5.892,8.871-0.069,12.255c5.823,3.384,15.295,3.384,21.156,0
					c5.861-3.384,5.892-8.87,0.069-12.254C460.79,318.621,451.318,318.621,445.457,322.004z"/>
			</g>
			<g style="opacity:0.15;">
				<path d="M445.457,322.004c-5.862,3.384-5.892,8.871-0.069,12.255c5.823,3.384,15.295,3.384,21.156,0
					c5.861-3.384,5.892-8.87,0.069-12.254C460.79,318.621,451.318,318.621,445.457,322.004z"/>
			</g>
		</g>
		<g>
			<path style="fill:#455A64;" d="M465.781,288.891c3.119-3.877,6.74-7.35,9.6-11.422c1.951-2.778,3.582-6.178,2.762-9.472
				c-0.761-3.056-3.617-5.33-6.713-5.909c-3.096-0.579-6.337,0.346-9.011,2.01c-2.674,1.664-4.847,4.019-6.81,6.482
				c-10.729,13.465-15.955,31.187-14.249,48.319c0.195,1.964,0.525,4.03,1.779,5.553c1.346,1.634,3.703,2.354,5.732,1.752
				c5.223-1.55,4.531-8.607,5.384-12.758c1.17-5.689,3.202-11.2,6-16.29C461.852,294.248,463.701,291.477,465.781,288.891z"/>
			<path style="opacity:0.2;fill:#FFFFFF;" d="M465.781,288.891c3.119-3.877,6.74-7.35,9.6-11.422
				c1.951-2.778,3.582-6.178,2.762-9.472c-0.761-3.056-3.617-5.33-6.713-5.909c-3.096-0.579-6.337,0.346-9.011,2.01
				c-2.674,1.664-4.847,4.019-6.81,6.482c-10.729,13.465-15.955,31.187-14.249,48.319c0.195,1.964,0.525,4.03,1.779,5.553
				c1.346,1.634,3.703,2.354,5.732,1.752c5.223-1.55,4.531-8.607,5.384-12.758c1.17-5.689,3.202-11.2,6-16.29
				C461.852,294.248,463.701,291.477,465.781,288.891z"/>
			<g>
				<path style="fill:#F0F0F0;" d="M448.544,320.945c0.202-0.04,0.359-0.213,0.369-0.428c0.366-8.385,3.091-37.006,22.815-53.244
					c0.195-0.16,0.223-0.449,0.062-0.644c-0.16-0.195-0.448-0.222-0.643-0.063c-20.015,16.48-22.778,45.429-23.148,53.91
					c-0.01,0.252,0.185,0.466,0.437,0.477C448.473,320.955,448.509,320.952,448.544,320.945z"/>
			</g>
			<g>
				<path style="fill:#455A64;" d="M445.662,321.853c0.597,3.291,3.424,7.365,6.405,8.882c2.955,1.504,6.385,1.906,9.692,1.622
					c3.366-0.289,6.636-1.255,9.838-2.333c1.581-0.532,3.339-1.251,3.508-3.21c0.089-1.034-0.375-2.035-1.119-2.759
					c-0.312-0.304-0.655-0.599-1.021-0.879c-0.744-0.569-0.395-1.752,0.54-1.816c0.941-0.064,1.877-0.17,2.804-0.347
					c2.141-0.409,4.249-1.225,5.887-2.663c1.23-1.08,2.162-2.488,2.719-4.027c0.476-1.317,0.609-2.97-0.388-3.953
					c-0.572-0.564-1.395-0.778-2.181-0.948c-0.701-0.152-1.404-0.28-2.109-0.39c-0.937-0.146-1.092-1.424-0.217-1.789l2.975-1.239
					c0.826-0.344,1.686-0.713,2.258-1.402c0.911-1.098,0.846-2.697,0.573-4.098c-0.364-1.862-1.007-3.658-1.445-5.504
					c-0.438-1.846-0.668-3.794-0.196-5.632c-5.555-0.563-11.262-0.298-16.664,1.112c-1.613,0.421-3.245,0.95-4.547,1.991
					c-1.855,1.484-2.338,3.712-2.141,6.125c0.037,0.458-0.592,0.631-0.811,0.227l-1.901-3.505c-0.573-1.056-1.868-1.454-2.956-0.944
					c-1.64,0.77-3.104,2.003-4.347,3.419c-1.34,1.527-2.024,3.539-1.86,5.563c0.222,2.738,0.7,5.512,1.386,8.168
					c0.18,0.696-0.6,1.22-1.183,0.8l-0.091-0.066c-0.519-0.376-1.156-0.6-1.792-0.521c-1.68,0.208-2.11,1.911-2.221,3.36
					C444.894,317.195,445.266,319.668,445.662,321.853z"/>
				<path style="opacity:0.2;" d="M445.662,321.853c0.597,3.291,3.424,7.365,6.405,8.882c2.955,1.504,6.385,1.906,9.692,1.622
					c3.366-0.289,6.636-1.255,9.838-2.333c1.581-0.532,3.339-1.251,3.508-3.21c0.089-1.034-0.375-2.035-1.119-2.759
					c-0.312-0.304-0.655-0.599-1.021-0.879c-0.744-0.569-0.395-1.752,0.54-1.816c0.941-0.064,1.877-0.17,2.804-0.347
					c2.141-0.409,4.249-1.225,5.887-2.663c1.23-1.08,2.162-2.488,2.719-4.027c0.476-1.317,0.609-2.97-0.388-3.953
					c-0.572-0.564-1.395-0.778-2.181-0.948c-0.701-0.152-1.404-0.28-2.109-0.39c-0.937-0.146-1.092-1.424-0.217-1.789l2.975-1.239
					c0.826-0.344,1.686-0.713,2.258-1.402c0.911-1.098,0.846-2.697,0.573-4.098c-0.364-1.862-1.007-3.658-1.445-5.504
					c-0.438-1.846-0.668-3.794-0.196-5.632c-5.555-0.563-11.262-0.298-16.664,1.112c-1.613,0.421-3.245,0.95-4.547,1.991
					c-1.855,1.484-2.338,3.712-2.141,6.125c0.037,0.458-0.592,0.631-0.811,0.227l-1.901-3.505c-0.573-1.056-1.868-1.454-2.956-0.944
					c-1.64,0.77-3.104,2.003-4.347,3.419c-1.34,1.527-2.024,3.539-1.86,5.563c0.222,2.738,0.7,5.512,1.386,8.168
					c0.18,0.696-0.6,1.22-1.183,0.8l-0.091-0.066c-0.519-0.376-1.156-0.6-1.792-0.521c-1.68,0.208-2.11,1.911-2.221,3.36
					C444.894,317.195,445.266,319.668,445.662,321.853z"/>
				<path style="opacity:0.2;fill:#FFFFFF;" d="M445.662,321.853c0.597,3.291,3.424,7.365,6.405,8.882
					c2.955,1.504,6.385,1.906,9.692,1.622c3.366-0.289,6.636-1.255,9.838-2.333c1.581-0.532,3.339-1.251,3.508-3.21
					c0.089-1.034-0.375-2.035-1.119-2.759c-0.312-0.304-0.655-0.599-1.021-0.879c-0.744-0.569-0.395-1.752,0.54-1.816
					c0.941-0.064,1.877-0.17,2.804-0.347c2.141-0.409,4.249-1.225,5.887-2.663c1.23-1.08,2.162-2.488,2.719-4.027
					c0.476-1.317,0.609-2.97-0.388-3.953c-0.572-0.564-1.395-0.778-2.181-0.948c-0.701-0.152-1.404-0.28-2.109-0.39
					c-0.937-0.146-1.092-1.424-0.217-1.789l2.975-1.239c0.826-0.344,1.686-0.713,2.258-1.402c0.911-1.098,0.846-2.697,0.573-4.098
					c-0.364-1.862-1.007-3.658-1.445-5.504c-0.438-1.846-0.668-3.794-0.196-5.632c-5.555-0.563-11.262-0.298-16.664,1.112
					c-1.613,0.421-3.245,0.95-4.547,1.991c-1.855,1.484-2.338,3.712-2.141,6.125c0.037,0.458-0.592,0.631-0.811,0.227l-1.901-3.505
					c-0.573-1.056-1.868-1.454-2.956-0.944c-1.64,0.77-3.104,2.003-4.347,3.419c-1.34,1.527-2.024,3.539-1.86,5.563
					c0.222,2.738,0.7,5.512,1.386,8.168c0.18,0.696-0.6,1.22-1.183,0.8l-0.091-0.066c-0.519-0.376-1.156-0.6-1.792-0.521
					c-1.68,0.208-2.11,1.911-2.221,3.36C444.894,317.195,445.266,319.668,445.662,321.853z"/>
				<path style="fill:#F0F0F0;" d="M454.499,330.277c0.023-0.117,1.174-5.693,4.482-12.989c0-0.131,0.056-0.253,0.158-0.342
					c0.104-0.226,0.206-0.45,0.314-0.679c-0.95-8.724-4.405-14.811-4.439-14.871c-0.126-0.219-0.051-0.498,0.168-0.624
					c0.219-0.123,0.497-0.051,0.624,0.168c0.034,0.059,3.213,5.657,4.377,13.824c3.794-7.608,9.846-16.506,19.188-23.008
					c0.208-0.143,0.492-0.093,0.636,0.114c0.144,0.207,0.093,0.492-0.114,0.636c-9.636,6.706-15.718,16.003-19.413,23.718
					c7.529-3.666,15.528-2.217,15.884-2.149c0.247,0.047,0.41,0.286,0.363,0.534c-0.036,0.189-0.183,0.328-0.36,0.363
					c-0.056,0.011-0.115,0.012-0.174,0.001c-0.087-0.017-8.808-1.602-16.348,2.614c-3.283,7.222-4.424,12.752-4.447,12.867
					c-0.037,0.187-0.184,0.325-0.36,0.36c-0.057,0.011-0.117,0.012-0.176,0C454.611,330.764,454.45,330.524,454.499,330.277z"/>
			</g>
		</g>
	</g>
</g>
<g id="Screen">
	<g>
		<g>
			<g>
				<path style="fill:#BA68C8;" d="M417.009,358.213l0.326-185.268c0.012-4.12-2.886-9.146-6.477-11.219L181.12,29.438
					c-1.783-1.029-3.401-1.134-4.579-0.474l6.796-3.938l0,0.006c1.189-0.754,2.864-0.691,4.721,0.381l229.737,132.289
					c3.591,2.074,6.489,7.099,6.477,11.219l-0.326,185.268c-0.006,1.944-0.663,3.333-1.728,4.05l0.001,0.001l-0.008,0.004
					c-0.117,0.078-0.238,0.148-0.364,0.209l-6.702,3.903C416.291,361.67,417.003,360.24,417.009,358.213z"/>
				<path style="opacity:0.3;fill:#FFFFFF;" d="M183.336,25.026l0,0.006c1.189-0.754,2.864-0.691,4.721,0.381l229.737,132.289
					c1.996,1.152,3.776,3.218,4.963,5.532l-6.943,4.013c-1.187-2.309-2.964-4.37-4.957-5.521L181.12,29.438
					c-1.783-1.029-3.401-1.134-4.579-0.474L183.336,25.026z"/>
			</g>
			<path style="opacity:0.2;fill:#FFFFFF;" d="M424.272,168.921l-0.326,185.268c-0.006,1.944-0.663,3.333-1.728,4.05l0.001,0.001
				l-0.008,0.004c-0.117,0.078-0.238,0.148-0.364,0.209l-6.702,3.903c1.146-0.687,1.858-2.116,1.864-4.143l0.326-185.268
				c0.005-1.834-0.568-3.846-1.521-5.699l6.943-4.013C423.706,165.083,424.277,167.091,424.272,168.921z"/>
			<path style="fill:#BA68C8;" d="M417.316,181.363l-0.307,176.851c-0.006,2.027-0.717,3.457-1.864,4.143
				c-0.034,0.02-0.067,0.04-0.102,0.059c-0.016,0.009-0.033,0.015-0.049,0.023c-1.171,0.616-2.757,0.499-4.505-0.51L180.751,229.64
				c-3.586-2.07-6.489-7.099-6.477-11.219l0.308-177.079L417.316,181.363z"/>
			<path style="opacity:0.2;" d="M417.316,181.363l-0.307,176.851c-0.006,2.027-0.717,3.457-1.864,4.143
				c-0.034,0.02-0.067,0.04-0.102,0.059c-0.016,0.009-0.033,0.015-0.049,0.023c-1.171,0.616-2.757,0.499-4.505-0.51L180.751,229.64
				c-3.586-2.07-6.489-7.099-6.477-11.219l0.308-177.079L417.316,181.363z"/>
			<polygon style="fill:#FFFFFF;" points="203.161,224.138 203.417,77.164 401.009,190.763 400.753,337.523 			"/>
			<polygon style="fill:#455A64;" points="284.97,211.71 285.084,135.728 372.684,186.091 372.571,261.978 			"/>
			<path style="fill:#BA68C8;" d="M174.6,33.153c0.006-2.027,0.719-3.456,1.866-4.142c0.011-0.007,0.02-0.015,0.031-0.022
				c0.014-0.008,0.029-0.017,0.043-0.025c1.178-0.66,2.796-0.556,4.579,0.473l229.737,132.288c3.592,2.074,6.489,7.099,6.477,11.219
				l-0.019,8.417L174.582,41.342L174.6,33.153z"/>
			<path style="opacity:0.3;" d="M174.6,33.153c0.006-2.027,0.719-3.456,1.866-4.142c0.011-0.007,0.02-0.015,0.031-0.022
				c0.014-0.008,0.029-0.017,0.043-0.025c1.178-0.66,2.796-0.556,4.579,0.473l229.737,132.288c3.592,2.074,6.489,7.099,6.477,11.219
				l-0.019,8.417L174.582,41.342L174.6,33.153z"/>
			<g style="opacity:0.39;">
				<g>
					<path style="fill:#FFFFFF;" d="M191.804,42.1c-0.979-0.565-1.775-0.111-1.778,1.013c-0.003,1.125,0.788,2.494,1.766,3.059
						c0.979,0.565,1.775,0.111,1.778-1.013C193.574,44.035,192.783,42.665,191.804,42.1z"/>
				</g>
				<g>
					<path style="fill:#FFFFFF;" d="M186.964,39.306c-0.979-0.565-1.775-0.111-1.778,1.013c-0.003,1.124,0.788,2.494,1.766,3.059
						c0.979,0.565,1.775,0.111,1.778-1.013C188.733,41.241,187.943,39.871,186.964,39.306z"/>
				</g>
				<g>
					<path style="fill:#FFFFFF;" d="M182.124,36.511c-0.979-0.565-1.775-0.111-1.778,1.013c-0.003,1.124,0.788,2.494,1.766,3.059
						c0.979,0.565,1.775,0.111,1.778-1.013C183.893,38.446,183.103,37.076,182.124,36.511z"/>
				</g>
			</g>
			<g>
				<polygon style="fill:#FFFFFF;" points="191.079,102.504 191.053,111.732 191.079,102.504 				"/>
				<polygon style="fill:#FFFFFF;" points="191.042,115.279 183.012,110.642 183.012,110.642 191.043,115.279 191.017,124.507 
					191.016,124.507 				"/>
				
					<rect x="186.991" y="121.092" transform="matrix(0.5 -0.866 0.866 0.5 -15.389 224.8033)" style="fill:#FFFFFF;" width="0" height="9.273"/>
				
					<rect x="186.859" y="167.542" transform="matrix(0.5 -0.866 0.866 0.5 -55.6816 247.9131)" style="fill:#FFFFFF;" width="0" height="9.274"/>
				<polygon style="fill:#FFFFFF;" points="183.094,81.552 191.125,86.188 183.094,81.552 				"/>
				<polygon style="fill:#FFFFFF;" points="186.478,87.051 191.115,89.729 191.089,98.957 191.115,89.729 				"/>
				<polygon style="fill:#FFFFFF;" points="183.058,94.32 191.089,98.957 183.058,94.32 				"/>
				<polygon style="fill:#FFFFFF;" points="183.022,107.095 191.053,111.732 183.022,107.095 				"/>
				<polygon style="fill:#FFFFFF;" points="186.202,184.595 190.839,187.272 190.813,196.5 190.812,196.5 190.838,187.272 				"/>
				
					<rect x="186.932" y="141.998" transform="matrix(0.5 -0.866 0.866 0.5 -33.5237 235.205)" style="fill:#FFFFFF;" width="0" height="9.273"/>
				
					<rect x="186.895" y="154.773" transform="matrix(0.5 -0.866 0.866 0.5 -44.6037 241.5659)" style="fill:#FFFFFF;" width="0" height="9.274"/>
				<polygon style="fill:#FFFFFF;" points="183.048,97.867 191.079,102.504 191.053,111.732 183.022,107.095 				"/>
				<polygon style="fill:#FFFFFF;" points="191.016,124.507 182.985,119.87 183.012,110.642 191.042,115.279 				"/>
				<polygon style="fill:#FFFFFF;" points="182.88,157.092 190.911,161.728 190.885,170.957 182.854,166.32 				"/>
				<polygon style="fill:#FFFFFF;" points="190.849,183.725 182.817,179.088 182.844,169.86 190.875,174.497 				"/>
				<polygon style="fill:#FFFFFF;" points="182.916,144.316 190.947,148.953 190.921,158.182 182.89,153.545 				"/>
				<path style="fill:#BA68C8;" d="M180.151,206.117l13.208,7.626l0.188-66.265l-13.208-7.626L180.151,206.117z M182.844,169.86
					l8.031,4.637v0l-0.026,9.228l-8.031-4.637L182.844,169.86L182.844,169.86z M190.921,158.182l-8.031-4.637l0.026-9.228l0,0
					l8.031,4.637l0,0L190.921,158.182z M190.885,170.957l-8.031-4.637l0.026-9.228v0l8.031,4.637v0L190.885,170.957z M190.812,196.5
					L190.812,196.5l-8.031-4.637l0.026-9.228l3.394,1.96l4.637,2.677L190.812,196.5L190.812,196.5z M182.745,204.632l0.026-9.228
					l8.031,4.637l-0.026,9.228L182.745,204.632z"/>
				<path style="fill:#BA68C8;" d="M180.355,134.124l13.208,7.626l0.188-66.271l-13.208-7.626L180.355,134.124z M191.125,86.188
					l-8.031-4.637l0,0h0l0.026-9.229l8.031,4.637L191.125,86.188z M191.089,98.957l-8.031-4.637l0,0l0,0l0.026-9.228l3.395,1.96
					l4.637,2.677L191.089,98.957z M191.053,111.732l-8.031-4.637l0,0l0.026-9.228l8.031,4.637l0,0L191.053,111.732z
					 M191.017,124.507L191.017,124.507l-8.031-4.637l0.026-9.228v0l8.031,4.637L191.017,124.507z M190.98,137.276l-8.031-4.637
					l0.026-9.228l0,0v0l8.031,4.637v0l0,0L190.98,137.276z"/>
				<path style="fill:#455A64;" d="M180.151,206.117l13.208,7.626l0.188-66.265l-13.208-7.626L180.151,206.117z M182.844,169.86
					l8.031,4.637v0l-0.026,9.228l-8.031-4.637L182.844,169.86L182.844,169.86z M190.921,158.182l-8.031-4.637l0.026-9.228l0,0
					l8.031,4.637l0,0L190.921,158.182z M190.885,170.957l-8.031-4.637l0.026-9.228v0l8.031,4.637v0L190.885,170.957z M190.812,196.5
					L190.812,196.5l-8.031-4.637l0.026-9.228l3.394,1.96l4.637,2.677L190.812,196.5L190.812,196.5z M182.745,204.632l0.026-9.228
					l8.031,4.637l-0.026,9.228L182.745,204.632z"/>
				<path style="fill:#455A64;" d="M180.355,134.124l13.208,7.626l0.188-66.271l-13.208-7.626L180.355,134.124z M191.125,86.188
					l-8.031-4.637l0,0h0l0.026-9.229l8.031,4.637L191.125,86.188z M191.089,98.957l-8.031-4.637l0,0l0,0l0.026-9.228l3.395,1.96
					l4.637,2.677L191.089,98.957z M191.053,111.732l-8.031-4.637l0,0l0.026-9.228l8.031,4.637l0,0L191.053,111.732z
					 M191.017,124.507L191.017,124.507l-8.031-4.637l0.026-9.228v0l8.031,4.637L191.017,124.507z M190.98,137.276l-8.031-4.637
					l0.026-9.228l0,0v0l8.031,4.637v0l0,0L190.98,137.276z"/>
				<polygon style="fill:#FFFFFF;" points="183.058,94.32 183.084,85.092 186.478,87.051 191.115,89.729 191.089,98.957 
					183.058,94.32 				"/>
				<polygon style="fill:#FFFFFF;" points="180.543,67.853 180.557,62.706 193.766,70.332 193.751,75.479 180.543,67.853 				"/>
				<polygon style="fill:#FFFFFF;" points="183.094,81.552 183.12,72.323 191.151,76.96 191.125,86.188 183.094,81.552 				"/>
				<polygon style="fill:#FFFFFF;" points="182.975,123.41 182.975,123.411 191.006,128.047 191.006,128.047 190.98,137.276 
					182.949,132.639 				"/>
				<polygon style="fill:#FFFFFF;" points="182.781,191.863 182.807,182.635 186.202,184.595 190.838,187.272 190.812,196.5 
					190.812,196.5 				"/>
				<polygon style="fill:#FFFFFF;" points="190.802,200.04 190.776,209.269 182.745,204.632 182.771,195.404 				"/>
			</g>
			<g>
				<g>
					<polygon style="fill:#37474F;" points="352.366,264.715 352.354,268.921 284.715,229.298 284.727,225.092 					"/>
				</g>
				<g style="enable-background:new    ;">
					<g>
						<polygon style="fill:#37474F;" points="331.951,279.841 331.939,284.056 284.639,256.174 284.65,251.96 						"/>
					</g>
					<g>
						<polygon style="fill:#37474F;" points="320.051,258.931 320.039,263.145 284.678,242.157 284.69,237.943 						"/>
					</g>
					<g>
						<polygon style="fill:#37474F;" points="352.308,285.158 352.296,289.372 284.657,249.749 284.669,245.535 						"/>
					</g>
					<g>
						<polygon style="fill:#37474F;" points="352.347,271.141 352.335,275.347 284.696,235.723 284.708,231.517 						"/>
					</g>
				</g>
			</g>
			<g>
				<g>
					<path style="fill:#E0E0E0;" d="M224.885,205.12c4.472,2.582,8.085,8.84,8.07,13.979c-0.015,5.139-3.651,7.211-8.123,4.629
						c-4.472-2.582-8.085-8.84-8.07-13.979C216.777,204.611,220.413,202.538,224.885,205.12z"/>
				</g>
				<g>
					<path style="fill:#E0E0E0;" d="M224.952,181.541c4.472,2.582,8.085,8.84,8.07,13.979c-0.014,5.139-3.651,7.211-8.123,4.629
						c-4.472-2.582-8.085-8.84-8.07-13.979C216.844,181.032,220.48,178.959,224.952,181.541z"/>
				</g>
				<g>
					<path style="fill:#E0E0E0;" d="M246.951,194.242c4.472,2.582,8.085,8.84,8.07,13.979c-0.014,5.139-3.651,7.211-8.123,4.629
						c-4.472-2.582-8.085-8.84-8.07-13.979C238.842,193.733,242.479,191.66,246.951,194.242z"/>
				</g>
				<g>
					<path style="fill:#E0E0E0;" d="M268.876,230.518c4.472,2.582,8.085,8.84,8.07,13.978c-0.014,5.139-3.651,7.211-8.123,4.629
						c-4.472-2.582-8.085-8.84-8.07-13.979C260.768,230.009,264.404,227.936,268.876,230.518z"/>
				</g>
				<g>
					<path style="fill:#E0E0E0;" d="M268.943,206.939c4.472,2.582,8.085,8.84,8.07,13.978c-0.014,5.139-3.651,7.211-8.123,4.629
						c-4.472-2.582-8.085-8.84-8.07-13.979C260.835,206.43,264.471,204.357,268.943,206.939z"/>
				</g>
				<g>
					<path style="fill:#E0E0E0;" d="M246.884,217.821c4.472,2.582,8.085,8.84,8.07,13.979c-0.015,5.139-3.651,7.211-8.123,4.629
						c-4.472-2.582-8.085-8.84-8.07-13.979C238.776,217.312,242.412,215.239,246.884,217.821z"/>
				</g>
			</g>
		</g>
		<g>
			<path style="fill:#BA68C8;" d="M440.63,130.104l-86.683-50.046c-0.685-0.395-1.305-0.431-1.754-0.172l0,0l-6.484,4.648
				l0.001,0.001c0.448-0.252,1.062-0.214,1.74,0.178l86.683,50.046c1.367,0.789,2.471,2.709,2.466,4.28l-0.336,77.39
				c-0.002,0.759-0.266,1.294-0.689,1.563l0.002,0.004l6.564-4.701l-0.005-0.01c0.383-0.282,0.624-0.793,0.626-1.511l0.336-77.39
				C443.1,132.813,441.997,130.894,440.63,130.104z"/>
			<path style="fill:#455A64;" d="M436.263,216.429l0.336-77.39c0.005-1.571-1.099-3.491-2.466-4.28L347.45,84.713
				c-0.678-0.392-1.292-0.429-1.74-0.178c-0.455,0.255-0.74,0.809-0.742,1.601l-0.336,77.39c-0.004,1.571,1.099,3.491,2.466,4.28
				l86.683,50.046c0.707,0.408,1.341,0.427,1.793,0.14C435.997,217.723,436.261,217.188,436.263,216.429z"/>
			<g>
				<g style="opacity:0.3;">
					<polygon points="358.142,141.412 358.116,150.587 350.131,145.977 350.157,136.802 					"/>
				</g>
				<g style="opacity:0.3;">
					<polygon points="358.142,158.585 358.116,167.761 350.131,163.151 350.157,153.975 					"/>
				</g>
				<g>
					<polygon style="fill:#FFFFFF;" points="366.132,163.195 366.106,172.37 358.121,167.76 358.147,158.585 					"/>
				</g>
				<g style="opacity:0.5;">
					<polygon style="fill:#FFFFFF;" points="410.377,174.372 410.367,177.952 362.852,150.52 362.863,146.939 					"/>
				</g>
				<g style="opacity:0.3;">
					<polygon points="358.182,127.338 358.156,136.513 350.171,131.903 350.197,122.728 					"/>
				</g>
				<g style="opacity:0.5;">
					<polygon style="fill:#FFFFFF;" points="410.457,146.216 410.447,149.804 362.932,122.372 362.942,118.784 					"/>
				</g>
				<g style="opacity:0.5;">
					<polygon style="fill:#FFFFFF;" points="410.417,160.298 410.407,163.878 362.892,136.446 362.902,132.865 					"/>
				</g>
				<g style="opacity:0.3;">
					<polygon points="358.222,113.257 358.196,122.439 350.211,117.829 350.237,108.646 					"/>
				</g>
				<g>
					<polygon style="fill:#FFFFFF;" points="431.099,155.332 431.073,164.515 414.67,155.044 414.696,145.862 					"/>
				</g>
				<g>
					<polygon style="fill:#FFFFFF;" points="431.02,183.488 430.993,192.663 414.59,183.193 414.616,174.018 					"/>
				</g>
				<g>
					<polygon style="fill:#FFFFFF;" points="431.059,169.414 431.033,178.589 414.63,169.119 414.656,159.943 					"/>
				</g>
			</g>
			<g style="opacity:0.3;">
				<path d="M434.133,134.753c1.367,0.789,2.471,2.709,2.466,4.28l-0.021,7.402l-53.301-30.773l0.029-10.253L434.133,134.753z"/>
			</g>
			<g>
				<polygon style="fill:#FFFFFF;" points="378.494,107.206 348.775,90.048 348.765,93.445 378.484,110.604 				"/>
				<g>
					<polygon style="fill:#FFFFFF;" points="426.793,133.082 426.791,134.038 432.779,137.495 432.782,136.539 					"/>
					<polygon style="fill:#FFFFFF;" points="426.777,138.947 432.765,142.404 432.768,141.457 426.779,137.999 					"/>
					<polygon style="fill:#FFFFFF;" points="426.786,135.677 432.774,139.135 432.777,138.178 426.789,134.721 					"/>
					<polygon style="fill:#FFFFFF;" points="426.781,137.308 432.77,140.765 432.772,139.818 426.784,136.36 					"/>
				</g>
			</g>
			<path style="fill:#37474F;" d="M440.63,130.104l-86.683-50.046c-0.685-0.395-1.305-0.431-1.754-0.172l0,0l-6.484,4.648
				l0.001,0.001c0.448-0.252,1.062-0.214,1.74,0.178l86.683,50.046c0.763,0.441,1.436,1.237,1.888,2.125l6.813-3.914
				C442.431,131.798,441.602,130.665,440.63,130.104z"/>
			<path style="fill:#263238;" d="M436.02,136.884c0.358,0.702,0.58,1.461,0.578,2.155l-0.336,77.39
				c-0.002,0.759-0.266,1.294-0.689,1.563l0.002,0.004l6.564-4.701l-0.005-0.01c0.383-0.282,0.624-0.793,0.626-1.511l0.336-77.39
				c0.001-0.454-0.099-0.937-0.262-1.414L436.02,136.884z"/>
		</g>
		<g>
			<path style="fill:#BA68C8;" d="M306.762,74.473l-86.683-50.046c-0.685-0.395-1.305-0.431-1.754-0.172l0,0l-6.484,4.648
				l0.001,0.001c0.448-0.252,1.062-0.214,1.74,0.178l86.683,50.046c1.367,0.789,2.47,2.709,2.466,4.28l-0.336,35.392
				c-0.002,0.759-0.266,1.294-0.689,1.563l0.002,0.004l6.564-4.701l-0.005-0.01c0.383-0.282,0.624-0.794,0.626-1.511l0.336-35.392
				C309.232,77.182,308.128,75.263,306.762,74.473z"/>
			<path style="fill:#455A64;" d="M302.394,118.8l0.336-35.392c0.004-1.571-1.099-3.491-2.466-4.28l-86.683-50.046
				c-0.678-0.392-1.292-0.429-1.74-0.178c-0.455,0.255-0.74,0.809-0.742,1.601l-0.336,35.392c-0.005,1.571,1.099,3.491,2.466,4.28
				l86.683,50.046c0.707,0.408,1.341,0.427,1.793,0.14C302.128,120.094,302.392,119.559,302.394,118.8z"/>
			<g>
				<g style="opacity:0.5;">
					<polygon style="fill:#FFFFFF;" points="227.467,57.501 227.431,70.154 216.428,63.802 216.464,51.148 					"/>
				</g>
				<g style="opacity:0.5;">
					<polygon style="fill:#FFFFFF;" points="244.625,67.004 244.589,79.658 233.586,73.305 233.622,60.651 					"/>
				</g>
				<g style="opacity:0.5;">
					<polygon style="fill:#FFFFFF;" points="261.784,76.507 261.748,89.161 250.744,82.808 250.78,70.154 					"/>
				</g>
				<g style="opacity:0.5;">
					<polygon style="fill:#FFFFFF;" points="278.942,86.011 278.906,98.664 267.903,92.312 267.939,79.658 					"/>
				</g>
				<g style="opacity:0.5;">
					<polygon style="fill:#FFFFFF;" points="296.1,95.514 296.064,108.168 285.061,101.815 285.097,89.161 					"/>
				</g>
			</g>
			<g style="opacity:0.3;">
				<path d="M300.264,79.122c1.367,0.789,2.47,2.709,2.466,4.28l-0.021,7.402l-53.301-30.773l0.029-10.253L300.264,79.122z"/>
			</g>
			<g>
				<polygon style="fill:#FFFFFF;" points="244.625,51.575 214.906,34.417 214.897,37.815 244.616,54.973 				"/>
				<g>
					<polygon style="fill:#FFFFFF;" points="292.925,77.451 292.922,78.407 298.91,81.865 298.913,80.908 					"/>
					<polygon style="fill:#FFFFFF;" points="292.908,83.316 298.896,86.773 298.899,85.826 292.911,82.369 					"/>
					<polygon style="fill:#FFFFFF;" points="292.917,80.046 298.906,83.504 298.908,82.548 292.92,79.09 					"/>
					<polygon style="fill:#FFFFFF;" points="292.913,81.677 298.901,85.134 298.904,84.187 292.915,80.729 					"/>
				</g>
			</g>
			<path style="fill:#37474F;" d="M306.762,74.473l-86.683-50.046c-0.685-0.395-1.305-0.431-1.754-0.172l0,0l-6.484,4.648
				l0.001,0.001c0.448-0.252,1.062-0.214,1.74,0.178l86.683,50.046c0.763,0.441,1.436,1.237,1.888,2.125l6.813-3.914
				C308.563,76.167,307.733,75.034,306.762,74.473z"/>
			<path style="fill:#263238;" d="M302.152,81.253c0.358,0.703,0.58,1.461,0.578,2.155l-0.336,35.392
				c-0.002,0.759-0.266,1.294-0.689,1.563l0.002,0.004l6.564-4.701l-0.005-0.01c0.383-0.282,0.624-0.794,0.626-1.511l0.336-35.392
				c0.001-0.454-0.099-0.937-0.262-1.414L302.152,81.253z"/>
		</g>
		<g>
			<path style="fill:#BA68C8;" d="M440.63,230.463l-86.683-50.046c-0.685-0.395-1.305-0.431-1.754-0.172l0,0l-6.484,4.648
				l0.001,0.001c0.448-0.251,1.062-0.214,1.74,0.178l86.683,50.046c1.367,0.789,2.471,2.709,2.466,4.28l-0.336,118.422
				c-0.002,0.759-0.266,1.294-0.689,1.563l0.002,0.004l6.564-4.701l-0.005-0.01c0.383-0.282,0.624-0.793,0.626-1.511l0.336-118.422
				C443.1,233.172,441.997,231.252,440.63,230.463z"/>
			<path style="fill:#BA68C8;" d="M436.263,357.82l0.336-118.422c0.005-1.571-1.099-3.491-2.466-4.28l-86.683-50.046
				c-0.678-0.392-1.292-0.429-1.74-0.178c-0.455,0.255-0.74,0.809-0.742,1.601l-0.336,118.422c-0.004,1.571,1.099,3.491,2.466,4.28
				l86.683,50.047c0.707,0.408,1.341,0.427,1.793,0.14C435.997,359.114,436.261,358.578,436.263,357.82z"/>
			<g style="opacity:0.3;">
				<path d="M434.133,235.112c1.367,0.789,2.471,2.709,2.466,4.28l-0.021,7.402l-53.301-30.773l0.029-10.253L434.133,235.112z"/>
			</g>
			<g>
				<polygon style="fill:none;" points="430.16,315.574 430.16,315.574 429.575,314.561 428.479,315.194 429.575,314.561 				"/>
				<polygon style="fill:none;" points="430.233,289.697 430.233,289.697 429.648,288.684 428.553,289.308 429.648,288.684 				"/>
				<polygon style="fill:none;" points="427.494,276.965 426.905,277.3 427.494,276.965 				"/>
				<polygon style="fill:none;" points="381.415,278.888 379.741,275.99 380.33,275.663 379.741,275.99 381.415,278.888 				"/>
				<polygon style="fill:none;" points="427.7,344.965 427.303,344.273 426.714,344.609 427.303,344.273 				"/>
				<polygon style="fill:none;" points="428.479,315.194 427.391,313.3 426.802,313.635 427.391,313.3 				"/>
				<polygon style="fill:none;" points="380.301,286.112 381.389,288.006 382.485,287.373 383.07,288.387 383.07,288.387 
					382.485,287.373 381.389,288.006 380.301,286.112 379.712,286.448 379.712,286.448 				"/>
				<rect x="380.08" y="260.065" style="fill:none;" width="0" height="0.678"/>
				<polygon style="fill:none;" points="382.982,319.36 382.982,319.36 382.397,318.347 381.302,318.98 382.397,318.347 				"/>
				<polygon style="fill:none;" points="379.624,317.422 380.213,317.086 380.213,317.086 379.624,317.422 380.685,319.259 				"/>
				<polygon style="fill:none;" points="429.487,345.534 430.072,346.548 429.487,345.534 428.391,346.167 428.391,346.167 				"/>
				<polygon style="fill:none;" points="426.875,287.758 426.875,287.759 427.464,287.423 				"/>
				<polygon style="fill:none;" points="429.716,264.677 428.621,265.301 429.716,264.677 				"/>
				<polygon style="fill:#FFFFFF;" points="354.653,268.739 348.568,265.226 348.547,272.619 354.632,276.133 				"/>
				<polygon style="fill:#FFFFFF;" points="354.683,258.281 348.598,254.768 348.577,262.161 354.662,265.674 				"/>
				<polygon style="fill:#FFFFFF;" points="378.494,207.564 348.775,190.406 348.765,193.804 378.484,210.962 				"/>
				<polygon style="fill:#FFFFFF;" points="430.301,265.682 429.716,264.677 428.621,265.301 427.532,263.416 426.943,263.743 
					428.617,266.642 				"/>
				<polygon style="fill:#FFFFFF;" points="354.726,242.862 348.641,239.349 348.62,246.742 354.705,250.256 				"/>
				<polygon style="fill:#FFFFFF;" points="354.756,232.404 348.671,228.891 348.65,236.284 354.735,239.798 				"/>
				<polygon style="fill:#BA68C8;" points="348.71,215.333 348.689,222.727 424.532,266.515 424.553,259.122 				"/>
				<path style="fill:#BA68C8;" d="M424.532,266.515l8.158,4.71l0.021-7.393l-8.158-4.71L424.532,266.515z M427.532,263.416
					l1.089,1.886l1.096-0.624l0,0l0.585,1.005l-1.684,0.96l-1.674-2.899L427.532,263.416z"/>
				<polygon style="fill:#BA68C8;" points="348.741,204.32 348.72,211.714 424.563,255.502 424.584,248.108 				"/>
				<polygon style="fill:#FFFFFF;" points="430.333,254.668 429.748,253.655 428.652,254.279 427.563,252.394 426.974,252.73 
					428.648,255.62 				"/>
				<path style="fill:#BA68C8;" d="M424.563,255.502l8.158,4.71l0.021-7.393l-8.158-4.71L424.563,255.502z M427.563,252.394
					l1.089,1.885l1.096-0.624l0.585,1.013l-1.685,0.952l-1.674-2.89L427.563,252.394z"/>
				<polygon style="fill:#FFFFFF;" points="383.173,252.052 382.588,251.038 381.492,251.671 380.404,249.777 379.815,250.113 
					381.489,253.012 				"/>
				<path style="fill:#BA68C8;" d="M385.561,257.595l0.021-7.393l-8.158-4.71l-0.021,7.393L385.561,257.595z M380.404,249.777
					l1.089,1.894l1.096-0.633l0.585,1.013l-1.685,0.96l-1.674-2.899L380.404,249.777z"/>
				<polygon style="fill:#BA68C8;" points="357.804,252.044 377.374,263.343 377.374,263.343 377.374,263.343 377.395,255.95 
					357.825,244.651 				"/>
				<polygon style="fill:#BA68C8;" points="377.424,245.492 357.854,234.193 357.833,241.586 377.403,252.885 				"/>
				<polygon style="fill:#FFFFFF;" points="381.459,263.47 383.143,262.51 382.559,261.497 381.463,262.121 380.374,260.236 
					379.785,260.571 				"/>
				<path style="fill:#BA68C8;" d="M377.374,263.343l8.158,4.71l0.021-7.393l-8.158-4.71l0,0L377.374,263.343L377.374,263.343z
					 M380.374,260.236L380.374,260.236l1.089,1.885l1.096-0.624l0.585,1.013l-1.685,0.96l-1.673-2.899v0L380.374,260.236z"/>
				<path style="fill:#BA68C8;" d="M424.464,290.531l8.158,4.71l0.021-7.393l-8.158-4.71L424.464,290.531z M426.875,287.758
					l0.589-0.336l1.089,1.886l1.096-0.624l0.585,1.013l0,0l0,0l-1.685,0.96L426.875,287.758L426.875,287.758L426.875,287.758z"/>
				<path style="fill:#BA68C8;" d="M424.42,305.949l8.158,4.71l0.021-7.393l-8.158-4.71L424.42,305.949z M427.42,302.85l1.089,1.886
					l1.096-0.624l0.585,1.005l-1.685,0.96l-1.674-2.899L427.42,302.85z"/>
				<path style="fill:#BA68C8;" d="M424.39,316.407l8.158,4.71l0.021-7.393l-8.158-4.71L424.39,316.407z M427.391,313.3l1.089,1.894
					l1.096-0.633l0.585,1.013l0,0l0,0l-1.685,0.96l-1.674-2.899L427.391,313.3z"/>
				<polygon style="fill:#BA68C8;" points="404.841,297.715 404.82,305.109 424.39,316.407 424.39,316.407 424.411,309.014 				"/>
				<polygon style="fill:#BA68C8;" points="404.871,287.257 404.85,294.65 424.42,305.949 424.441,298.556 				"/>
				<polygon style="fill:#BA68C8;" points="404.914,271.838 404.893,279.232 424.464,290.531 424.485,283.137 				"/>
				<polygon style="fill:#BA68C8;" points="404.944,261.38 404.923,268.773 424.493,280.072 424.514,272.679 				"/>
				<polygon style="fill:#FFFFFF;" points="430.263,279.239 429.678,278.226 428.582,278.859 427.494,276.965 426.905,277.3 
					428.578,280.199 				"/>
				<path style="fill:#BA68C8;" d="M424.514,272.679l-0.021,7.393l8.158,4.71l0.021-7.393L424.514,272.679L424.514,272.679z
					 M427.494,276.965L427.494,276.965l1.089,1.894l1.096-0.633l0.585,1.013l-1.685,0.96l-1.674-2.899L427.494,276.965z"/>
				<polygon style="fill:#FFFFFF;" points="395.71,273.93 401.795,277.443 401.816,270.05 395.731,266.536 				"/>
				<polygon style="fill:#FFFFFF;" points="401.846,259.591 395.761,256.078 395.74,263.472 401.825,266.985 				"/>
				<polygon style="fill:#FFFFFF;" points="428.549,290.657 430.233,289.697 430.233,289.697 429.648,288.684 428.553,289.308 
					427.464,287.423 426.875,287.759 426.875,287.759 				"/>
				<polygon style="fill:#BA68C8;" points="357.76,267.463 377.33,278.762 377.33,278.762 377.33,278.762 377.351,271.368 
					357.781,260.07 				"/>
				<path style="fill:#BA68C8;" d="M377.33,278.762l8.158,4.71l0.021-7.394l-8.158-4.71L377.33,278.762L377.33,278.762z
					 M380.33,275.663l1.089,1.886l1.096-0.624l0.585,1.005l-1.685,0.96l0,0h0l-1.674-2.899L380.33,275.663z"/>
				<polygon style="fill:#FFFFFF;" points="381.415,278.888 381.415,278.888 383.1,277.928 382.515,276.924 381.419,277.548 
					380.33,275.663 379.741,275.99 				"/>
				<polygon style="fill:#FFFFFF;" points="381.389,288.006 380.301,286.112 379.712,286.448 381.386,289.347 383.07,288.387 
					382.485,287.373 				"/>
				<path style="fill:#BA68C8;" d="M377.3,289.22L377.3,289.22L377.3,289.22l8.158,4.71l0.021-7.393l-8.158-4.71v0l0,0L377.3,289.22
					z M380.301,286.112l1.089,1.894l1.096-0.633l0.585,1.013l0,0l-1.685,0.96l-1.674-2.899v0L380.301,286.112z"/>
				<polygon style="fill:#FFFFFF;" points="365.222,296.972 365.243,289.579 359.158,286.066 359.137,293.459 				"/>
				<polygon style="fill:#BA68C8;" points="357.73,277.921 377.3,289.22 377.3,289.22 377.321,281.827 377.321,281.827 
					357.751,270.528 				"/>
				<polygon style="fill:#BA68C8;" points="377.233,312.8 377.233,312.8 348.48,296.199 348.459,303.593 377.212,320.194 
					377.233,312.8 				"/>
				<polygon style="fill:#FFFFFF;" points="380.685,319.259 381.298,320.32 382.982,319.36 382.397,318.347 381.302,318.98 
					380.213,317.086 379.624,317.422 				"/>
				<path style="fill:#BA68C8;" d="M377.233,312.8l-0.021,7.393l0,0l8.158,4.71l0.021-7.393L377.233,312.8L377.233,312.8z
					 M380.213,317.086L380.213,317.086l1.089,1.894l1.096-0.633l0.585,1.013l0,0l-1.685,0.96l-0.613-1.061l-1.061-1.838
					L380.213,317.086z"/>
				<polygon style="fill:#BA68C8;" points="424.323,339.988 395.57,323.387 395.549,330.78 424.302,347.381 424.302,347.381 
					424.302,347.381 				"/>
				<polygon style="opacity:0.3;" points="348.71,215.333 348.689,222.727 424.532,266.515 424.553,259.122 				"/>
				<polygon style="opacity:0.3;" points="348.741,204.32 348.72,211.714 424.563,255.502 424.584,248.108 				"/>
				<polygon style="opacity:0.3;" points="357.804,252.044 377.374,263.343 377.374,263.343 377.374,263.343 377.395,255.95 
					357.825,244.651 				"/>
				<polygon style="opacity:0.3;" points="377.424,245.492 357.854,234.193 357.833,241.586 377.403,252.885 				"/>
				<polygon style="opacity:0.3;" points="404.841,297.715 404.82,305.109 424.39,316.407 424.39,316.407 424.411,309.014 				"/>
				<polygon style="opacity:0.3;" points="404.871,287.257 404.85,294.65 424.42,305.949 424.441,298.556 				"/>
				<polygon style="opacity:0.3;" points="404.914,271.838 404.893,279.232 424.464,290.531 424.485,283.137 				"/>
				<polygon style="opacity:0.3;" points="404.944,261.38 404.923,268.773 424.493,280.072 424.514,272.679 				"/>
				<polygon style="opacity:0.3;" points="357.76,267.463 377.33,278.762 377.33,278.762 377.33,278.762 377.351,271.368 
					357.781,260.07 				"/>
				<polygon style="opacity:0.3;" points="357.73,277.921 377.3,289.22 377.3,289.22 377.321,281.827 377.321,281.827 
					357.751,270.528 				"/>
				<polygon style="opacity:0.3;" points="377.233,312.8 377.233,312.8 348.48,296.199 348.459,303.593 377.212,320.194 
					377.233,312.8 				"/>
				<polygon style="opacity:0.3;" points="424.323,339.988 395.57,323.387 395.549,330.78 424.302,347.381 424.302,347.381 
					424.302,347.381 				"/>
				<path style="fill:#BA68C8;" d="M424.323,339.988l-0.021,7.393l0,0l8.158,4.71l0.021-7.393L424.323,339.988L424.323,339.988z
					 M427.303,344.273l0.397,0.691l0.691,1.203l1.096-0.633l0.585,1.013l-1.685,0.96l-1.674-2.899L427.303,344.273z"/>
				<path style="opacity:0.4;" d="M424.532,266.515l8.158,4.71l0.021-7.393l-8.158-4.71L424.532,266.515z M427.532,263.416
					l1.089,1.886l1.096-0.624l0,0l0.585,1.005l-1.684,0.96l-1.674-2.899L427.532,263.416z"/>
				<path style="opacity:0.4;" d="M424.563,255.502l8.158,4.71l0.021-7.393l-8.158-4.71L424.563,255.502z M427.563,252.394
					l1.089,1.885l1.096-0.624l0.585,1.013l-1.685,0.952l-1.674-2.89L427.563,252.394z"/>
				<path style="opacity:0.4;" d="M385.561,257.595l0.021-7.393l-8.158-4.71l-0.021,7.393L385.561,257.595z M380.404,249.777
					l1.089,1.894l1.096-0.633l0.585,1.013l-1.685,0.96l-1.674-2.899L380.404,249.777z"/>
				<path style="opacity:0.4;" d="M377.374,263.343l8.158,4.71l0.021-7.393l-8.158-4.71l0,0L377.374,263.343L377.374,263.343z
					 M380.374,260.236L380.374,260.236l1.089,1.885l1.096-0.624l0.585,1.013l-1.685,0.96l-1.673-2.899v0L380.374,260.236z"/>
				<path style="opacity:0.4;" d="M424.464,290.531l8.158,4.71l0.021-7.393l-8.158-4.71L424.464,290.531z M426.875,287.758
					l0.589-0.336l1.089,1.886l1.096-0.624l0.585,1.013l0,0l0,0l-1.685,0.96L426.875,287.758L426.875,287.758L426.875,287.758z"/>
				<path style="opacity:0.4;" d="M424.42,305.949l8.158,4.71l0.021-7.393l-8.158-4.71L424.42,305.949z M427.42,302.85l1.089,1.886
					l1.096-0.624l0.585,1.005l-1.685,0.96l-1.674-2.899L427.42,302.85z"/>
				<path style="opacity:0.4;" d="M424.39,316.407l8.158,4.71l0.021-7.393l-8.158-4.71L424.39,316.407z M427.391,313.3l1.089,1.894
					l1.096-0.633l0.585,1.013l0,0l0,0l-1.685,0.96l-1.674-2.899L427.391,313.3z"/>
				<path style="opacity:0.4;" d="M424.514,272.679l-0.021,7.393l8.158,4.71l0.021-7.393L424.514,272.679L424.514,272.679z
					 M427.494,276.965L427.494,276.965l1.089,1.894l1.096-0.633l0.585,1.013l-1.685,0.96l-1.674-2.899L427.494,276.965z"/>
				<path style="opacity:0.4;" d="M377.33,278.762l8.158,4.71l0.021-7.394l-8.158-4.71L377.33,278.762L377.33,278.762z
					 M380.33,275.663l1.089,1.886l1.096-0.624l0.585,1.005l-1.685,0.96l0,0h0l-1.674-2.899L380.33,275.663z"/>
				<path style="opacity:0.4;" d="M377.3,289.22L377.3,289.22L377.3,289.22l8.158,4.71l0.021-7.393l-8.158-4.71v0l0,0L377.3,289.22z
					 M380.301,286.112l1.089,1.894l1.096-0.633l0.585,1.013l0,0l-1.685,0.96l-1.674-2.899v0L380.301,286.112z"/>
				<path style="opacity:0.4;" d="M377.233,312.8l-0.021,7.393l0,0l8.158,4.71l0.021-7.393L377.233,312.8L377.233,312.8z
					 M380.213,317.086L380.213,317.086l1.089,1.894l1.096-0.633l0.585,1.013l0,0l-1.685,0.96l-0.613-1.061l-1.061-1.838
					L380.213,317.086z"/>
				<path style="opacity:0.4;" d="M424.323,339.988l-0.021,7.393l0,0l8.158,4.71l0.021-7.393L424.323,339.988L424.323,339.988z
					 M427.303,344.273l0.397,0.691l0.691,1.203l1.096-0.633l0.585,1.013l-1.685,0.96l-1.674-2.899L427.303,344.273z"/>
				<polygon style="fill:#FFFFFF;" points="430.072,346.548 429.487,345.534 428.391,346.167 428.391,346.167 427.7,344.965 
					427.303,344.273 426.714,344.609 428.388,347.508 				"/>
				<polygon style="fill:#FFFFFF;" points="395.637,299.807 401.722,303.32 401.743,295.927 395.658,292.413 				"/>
				<polygon style="fill:#FFFFFF;" points="395.667,289.349 401.752,292.862 401.772,285.468 395.688,281.955 				"/>
				<polygon style="fill:#FFFFFF;" points="430.19,305.116 429.605,304.111 428.509,304.736 427.42,302.85 426.832,303.177 
					428.505,306.076 				"/>
				<polygon style="fill:#FFFFFF;" points="430.16,315.574 430.16,315.574 429.575,314.561 428.479,315.194 427.391,313.3 
					426.802,313.635 428.475,316.534 				"/>
				<polygon style="fill:#FFFFFF;" points="354.611,283.44 348.526,279.927 348.505,287.321 354.59,290.834 				"/>
				<polygon style="fill:#FFFFFF;" points="383.076,307.28 389.161,310.793 389.182,303.4 383.097,299.887 				"/>
				<polygon style="fill:#FFFFFF;" points="393.701,313.414 399.793,316.932 399.814,309.538 393.722,306.021 				"/>
				<polygon style="fill:#FFFFFF;" points="415.81,318.774 415.789,326.167 421.874,329.68 421.895,322.287 				"/>
				<polygon style="fill:#FFFFFF;" points="426.414,332.301 432.506,335.819 432.527,328.425 426.435,324.908 				"/>
				<g>
					<polygon style="fill:#FFFFFF;" points="426.793,233.441 426.791,234.397 432.779,237.854 432.782,236.898 					"/>
					<polygon style="fill:#FFFFFF;" points="426.777,239.306 432.765,242.763 432.768,241.816 426.779,238.358 					"/>
					<polygon style="fill:#FFFFFF;" points="426.786,236.036 432.774,239.493 432.777,238.537 426.789,235.08 					"/>
					<polygon style="fill:#FFFFFF;" points="426.781,237.667 432.77,241.124 432.772,240.176 426.784,236.719 					"/>
				</g>
			</g>
			<path style="opacity:0.3;fill:#FFFFFF;" d="M440.63,230.463l-86.683-50.046c-0.685-0.395-1.305-0.431-1.754-0.172l0,0
				l-6.484,4.648l0.001,0.001c0.448-0.251,1.062-0.214,1.74,0.178l86.683,50.046c0.763,0.441,1.436,1.237,1.888,2.125l6.813-3.914
				C442.431,232.157,441.602,231.024,440.63,230.463z"/>
			<path style="opacity:0.2;fill:#FFFFFF;" d="M436.02,237.243c0.358,0.702,0.58,1.461,0.578,2.155l-0.336,118.422
				c-0.002,0.759-0.266,1.294-0.689,1.563l0.002,0.004l6.564-4.701l-0.005-0.01c0.383-0.282,0.624-0.793,0.626-1.511l0.336-118.422
				c0.001-0.454-0.099-0.937-0.262-1.414L436.02,237.243z"/>
		</g>
	</g>
</g>
<g id="Character_1">
	<g>
		<g>
			<path style="fill:#FFC3C2;" d="M181.156,134.021c0,0,0.718-3.026-1.178-3.425c0,0,1.633-3.434-0.428-4.121
				c-2.061-0.687-4.656,6.208-7.679,9.017c-0.548,0.616-4.084,3.807-4.549,2.776l-0.009,0.01l-4.851,1.868
				c-0.279,1.453-0.611,2.913-1.374,3.882c-5.194,7.92-11.131,11.738-15.555,17.383l-4.307-4.176l-8.18,11.374l8.029,6.005
				c4.104,3.07,9.943,2.079,12.804-2.173l14.784-21.969c0.636-0.945,1.469-1.732,2.449-2.312c2.35-1.39,6.874-4.213,8.546-6.274
				C181.958,139.052,182.279,136.001,181.156,134.021z"/>
			<path style="fill:#BA68C8;" d="M116.206,137.846c8.19-0.361,19.301,12.925,25.562,19.187c-0.482,7.653-8.723,12.683-8.723,12.683
				c-9.312-6.368-16.839-13.165-16.839-13.165V137.846z"/>
			<path style="opacity:0.3;fill:#FFFFFF;" d="M116.206,137.846c8.19-0.361,19.301,12.925,25.562,19.187
				c-0.482,7.653-8.723,12.683-8.723,12.683c-9.312-6.368-16.839-13.165-16.839-13.165V137.846z"/>
		</g>
		<g>
			<g>
				<polygon style="fill:#BA68C8;" points="190.46,80.29 215.919,134.827 171.328,146.909 145.862,92.367 				"/>
			</g>
			<g style="opacity:0.3;">
				<polygon style="fill:#FFFFFF;" points="190.46,80.29 215.919,134.827 171.328,146.909 145.862,92.367 				"/>
			</g>
			<g>
				<g>
					<path style="fill:#FFFFFF;" d="M203.882,121.004l0.639,1.371c0.006,0.578-0.196,1.094-0.612,1.52
						c-0.409,0.438-0.903,0.736-1.468,0.886c-0.811,0.221-1.603,0.11-2.371-0.333c-0.404-0.233-0.802-0.559-1.192-0.977
						c-0.152,0.692-0.44,1.307-0.863,1.859c-0.423,0.544-1.011,0.928-1.776,1.135c-1.219,0.324-2.442,0.135-3.684-0.582
						c-0.158-0.091-0.315-0.19-0.474-0.298c-1.406-0.968-2.538-2.377-3.405-4.233c-0.902-1.926-1.205-3.546-0.93-4.89
						c0.283-1.332,1.207-2.211,2.774-2.637c0.544-0.146,1.144-0.218,1.802-0.2c0.658,0.018,1.229,0.118,1.729,0.308l-2.672-5.715
						c-0.533-1.146-1.095-1.922-1.695-2.326c-0.053-0.035-0.106-0.067-0.159-0.098c-0.549-0.317-1.109-0.407-1.671-0.252
						c-0.601,0.162-0.988,0.522-1.154,1.092c0.216,0.036,0.426,0.115,0.63,0.232c0.194,0.112,0.381,0.259,0.562,0.44
						c0.364,0.366,0.67,0.806,0.911,1.323c0.426,0.92,0.56,1.711,0.415,2.408c-0.152,0.684-0.554,1.11-1.19,1.284
						c-0.589,0.155-1.182,0.065-1.784-0.283c-0.108-0.062-0.215-0.132-0.324-0.211c-0.714-0.519-1.305-1.279-1.773-2.281
						c-0.469-1.002-0.688-2.007-0.663-3.012c0.017-1.009,0.356-1.906,1.001-2.699c0.653-0.781,1.641-1.361,2.972-1.718
						c1.737-0.477,3.32-0.296,4.748,0.529c0.054,0.031,0.108,0.063,0.161,0.096c1.477,0.91,2.731,2.48,3.775,4.718l5.315,11.39
						c0.432,0.918,0.935,1.545,1.511,1.877C203.254,120.891,203.559,120.984,203.882,121.004z M197.102,122.084
						c0.208-0.192,0.352-0.421,0.445-0.671l-1.947-4.171c-0.3-0.148-0.621-0.252-0.971-0.323c-0.343-0.058-0.65-0.063-0.908,0.001
						c-0.508,0.142-0.809,0.51-0.904,1.096c-0.095,0.594,0.082,1.361,0.522,2.306c0.362,0.776,0.825,1.372,1.382,1.775
						c0.091,0.067,0.183,0.127,0.274,0.18c0.47,0.271,0.935,0.345,1.391,0.222C196.665,122.431,196.901,122.288,197.102,122.084"/>
				</g>
				<g>
					<path style="fill:#FFFFFF;" d="M190.971,126.143c0.12,0.521,0.162,0.98,0.118,1.374l-7.412,2.005
						c-0.357-0.288-0.706-0.662-1.041-1.118c-0.342-0.46-0.626-0.945-0.868-1.454c1.037-0.288,1.24-1.108,0.593-2.492
						c-0.263-0.571-0.647-1.228-1.131-1.967l-0.591-0.859l-6.124,1.664l0.262,0.948c0.248,0.932,0.46,1.58,0.638,1.954
						c0.355,0.76,0.774,1.28,1.258,1.559c0.447,0.258,0.951,0.312,1.51,0.162c0.242,0.509,0.419,1.03,0.539,1.543
						c0.12,0.521,0.155,0.976,0.118,1.374l-6.095,1.656c-0.364-0.292-0.713-0.666-1.048-1.122c-0.342-0.46-0.626-0.945-0.868-1.462
						c0.508-0.142,0.867-0.502,1.061-1.088c0.202-0.582,0.183-1.365-0.043-2.333l-5.227-22.018c-0.9-0.175-1.908-0.116-3.017,0.188
						c-0.576-1.228-0.844-2.327-0.791-3.274l7.49-2.033l16.448,22.959c0.605,0.859,1.254,1.496,1.932,1.896
						c0.678,0.391,1.264,0.524,1.757,0.39C190.681,125.113,190.858,125.634,190.971,126.143z M173.554,119.775l4.922-1.331
						l-6.92-10.131c-0.562-0.817-1.111-1.487-1.653-2.03L173.554,119.775"/>
				</g>
			</g>
		</g>
		<g>
			<g>
				<path style="fill:#FFC3C2;" d="M120.469,312.125c-0.146,3.484,0,7.577,0,7.577l-2.023,0.112
					c-1.961,0.108-3.668,1.377-4.337,3.224l-0.046,0.127c-0.347,0.96-1.389,1.477-2.363,1.173l0,0
					c-0.506-0.158-0.924-0.519-1.153-0.997l-1.035-8.74L120.469,312.125z"/>
				<path style="fill:#37474F;" d="M123.436,342.443c5.299,2.263,13.413,2.705,16.781-2.705v1.464
					c-3.367,5.41-11.482,4.968-16.781,2.705c-5.299-2.263-4.14-5.962-8.887-7.949c-3.036-1.159-4.637-2.926-4.637-2.926
					c-0.018-0.431-0.092-0.972-0.165-1.597c0.851,0.773,2.638,2.232,4.802,3.058C119.296,336.482,118.137,340.18,123.436,342.443z"
					/>
				<path style="fill:#BA68C8;" d="M109.746,326.63c0.243-1.594,0.127-2.57-0.027-3.125c-0.131-0.475-0.037-0.979,0.241-1.386
					l0.395-0.389l0.191,1.611c0.229,0.478,0.647,0.839,1.153,0.997c0.975,0.304,2.016-0.213,2.363-1.173l0.046-0.127
					c0.669-1.847,2.376-3.116,4.337-3.224l2.056-0.113c0.629-0.035,1.208,0.329,1.449,0.911c2.115,5.1,7.433,10.766,11.532,13.36
					c3.008-0.069,6.734,2.429,6.734,5.465v0.302c-3.367,5.41-11.482,4.968-16.781,2.705c-5.299-2.263-4.14-5.961-8.887-7.949
					c-2.164-0.826-3.951-2.286-4.802-3.058C109.599,330.182,109.452,328.564,109.746,326.63z"/>
				<g>
					<path style="fill:#FFFFFF;" d="M120.006,330.813c-0.232,0.283-0.655,0.317-0.938,0.085c-0.28-0.229-0.337-0.646-0.11-0.927
						c2.138-2.653,4.723-3.225,6.921-3.04c0.283,0.35,0.572,0.696,0.867,1.036C124.249,327.83,122.014,328.367,120.006,330.813z"/>
					<path style="fill:#FFFFFF;" d="M117.915,328.474c-0.232,0.283-0.655,0.317-0.938,0.085c-0.28-0.229-0.336-0.646-0.11-0.927
						c2.127-2.638,4.842-3.321,7.222-3.117c0.254,0.379,0.521,0.755,0.795,1.129C122.295,325.462,119.984,325.953,117.915,328.474z"
						/>
					<path style="fill:#FFFFFF;" d="M122.177,333.101c-0.232,0.283-0.655,0.317-0.938,0.085c-0.28-0.229-0.337-0.646-0.109-0.927
						c2.079-2.58,4.581-3.192,6.738-3.053c0.342,0.36,0.688,0.708,1.036,1.048C126.413,330.12,124.182,330.658,122.177,333.101z"/>
					<path style="fill:#FFFFFF;" d="M133.482,333.971c3.008-0.069,6.734,2.429,6.734,5.465v0.302
						c-3.317,5.33-11.237,4.976-16.538,2.8C124.087,335.258,131.077,333.944,133.482,333.971z"/>
					<path style="fill:#FFFFFF;" d="M124.413,335.284c-0.232,0.283-0.655,0.317-0.938,0.085c-0.28-0.229-0.337-0.646-0.11-0.927
						c2.085-2.587,4.594-3.195,6.755-3.052c0.423,0.376,0.844,0.729,1.262,1.064C128.792,332.272,126.482,332.763,124.413,335.284z"
						/>
				</g>
			</g>
			<g>
				<path style="fill:#FFC3C2;" d="M92.299,318.57c-0.146,3.484,0,7.577,0,7.577l-2.023,0.112c-1.961,0.108-3.669,1.377-4.337,3.224
					l-0.046,0.127c-0.347,0.96-1.389,1.477-2.363,1.173l0,0c-0.506-0.158-0.924-0.519-1.153-0.997l-1.035-8.74L92.299,318.57z"/>
				<path style="fill:#37474F;" d="M95.266,348.888c5.299,2.263,13.413,2.705,16.781-2.705v1.464
					c-3.367,5.41-11.481,4.968-16.781,2.705c-5.299-2.263-4.14-5.961-8.887-7.949c-3.036-1.159-4.637-2.926-4.637-2.926
					c-0.018-0.431-0.092-0.972-0.165-1.597c0.851,0.773,2.638,2.232,4.802,3.059C91.126,342.927,89.966,346.625,95.266,348.888z"/>
				<path style="fill:#BA68C8;" d="M81.576,333.074c0.243-1.594,0.127-2.57-0.027-3.125c-0.131-0.475-0.037-0.979,0.241-1.386
					l0.395-0.389l0.191,1.611c0.229,0.478,0.647,0.839,1.153,0.997c0.975,0.304,2.016-0.213,2.363-1.173l0.046-0.127
					c0.669-1.847,2.376-3.116,4.337-3.224l2.056-0.113c0.629-0.035,1.208,0.329,1.449,0.911c2.115,5.1,7.433,10.766,11.532,13.36
					c3.008-0.069,6.734,2.429,6.734,5.465v0.302c-3.367,5.409-11.481,4.968-16.781,2.705c-5.299-2.263-4.14-5.961-8.887-7.949
					c-2.164-0.826-3.951-2.286-4.802-3.059C81.429,336.627,81.281,335.009,81.576,333.074z"/>
				<g>
					<path style="fill:#FFFFFF;" d="M91.835,337.258c-0.232,0.283-0.655,0.317-0.938,0.085c-0.28-0.229-0.337-0.646-0.11-0.927
						c2.138-2.653,4.723-3.226,6.921-3.04c0.283,0.35,0.572,0.696,0.867,1.036C96.078,334.275,93.843,334.811,91.835,337.258z"/>
					<path style="fill:#FFFFFF;" d="M89.744,334.918c-0.232,0.283-0.655,0.317-0.938,0.085c-0.28-0.23-0.337-0.646-0.11-0.927
						c2.127-2.638,4.843-3.321,7.222-3.117c0.254,0.379,0.521,0.755,0.795,1.129C94.124,331.907,91.813,332.398,89.744,334.918z"/>
					<path style="fill:#FFFFFF;" d="M94.007,339.545c-0.232,0.283-0.655,0.317-0.938,0.085c-0.28-0.229-0.337-0.646-0.11-0.927
						c2.079-2.58,4.581-3.192,6.739-3.053c0.342,0.36,0.688,0.708,1.036,1.048C98.242,336.564,96.011,337.103,94.007,339.545z"/>
					<path style="fill:#FFFFFF;" d="M105.312,340.416c3.008-0.069,6.734,2.429,6.734,5.465v0.302
						c-3.317,5.329-11.237,4.976-16.538,2.8C95.917,341.702,102.907,340.389,105.312,340.416z"/>
					<path style="fill:#FFFFFF;" d="M96.242,341.729c-0.232,0.283-0.655,0.317-0.938,0.085c-0.28-0.229-0.337-0.646-0.11-0.927
						c2.084-2.586,4.594-3.195,6.755-3.052c0.423,0.376,0.844,0.73,1.261,1.064C100.622,338.717,98.311,339.208,96.242,341.729z"/>
				</g>
			</g>
			<g>
				<path style="fill:#37474F;" d="M127.319,202.179l-0.988,67.627l-3.191,47.335c-8.079,5.107-16.428,0.269-16.428,0.269
					c-3.064-22.426-3.187-36.289-1.515-45.622l-0.983-36.112l-1.597,37.344l-7.599,47.813c-8.286,5.374-17.3-0.164-17.3-0.164
					c0-17.191-1.764-37.621,2.972-50.018c-3.343-38.305,2.287-67.745,2.287-67.745L127.319,202.179z"/>
				<path style="opacity:0.3;" d="M107.559,222.091l-3.344,13.584l0.475,17.443l5.009-28.096c7.208-2.821,8.148-6.79,8.148-6.79
					C113.146,221.68,107.559,222.091,107.559,222.091z"/>
			</g>
		</g>
		<path style="fill:#BA68C8;" d="M86.164,144.405c11.717-5.492,20.504-6.134,30.085-6.545c14.341,9.23,8.971,16.919,8.727,29.246
			c-0.244,12.327,1.292,26.666,4.429,40.286c-18.795,15.012-43.665,11.482-49.34,7.875
			C81.404,178.553,79.792,147.037,86.164,144.405z"/>
		<path style="opacity:0.6;fill:#FFFFFF;" d="M86.164,144.405c11.717-5.492,20.504-6.134,30.085-6.545
			c14.341,9.23,8.971,16.919,8.727,29.246c-0.244,12.327,1.292,26.666,4.429,40.286c-18.795,15.012-43.665,11.482-49.34,7.875
			C81.404,178.553,79.792,147.037,86.164,144.405z"/>
		<g>
			<path style="fill:#263238;" d="M121.735,119.716c1.954-1.404,3.357-3.555,3.854-5.909s0.083-4.889-1.136-6.963
				c1.059-0.508,2.086-1.352,2.568-2.423c0.464-1.031,0.234-2.336-0.555-3.146c-0.789-0.81-2.087-1.075-3.13-0.637
				c0.651-1.601-0.099-3.777-1.589-4.651c-1.49-0.874-3.596-0.485-4.676,0.865c0.072-1.1-0.691-2.158-1.738-2.502
				c-1.047-0.344-2.199-0.154-3.241,0.203c-1.043,0.357-2.025,0.875-3.076,1.208c-1.774,0.562-3.667,0.574-5.523,0.705
				c-1.856,0.131-3.773,0.411-5.335,1.423c-1.562,1.011-2.941,3.375-2.099,5.411c-0.526-0.668-1.367-1.147-2.216-1.175
				c-0.849-0.028-1.704,0.334-2.273,0.965c1.162,0.72,2.286,1.495,3.447,2.214c-1.169-0.526-2.913,0.299-3.546,1.414
				c-0.633,1.115-0.663,2.463-0.625,3.744c0.144,4.868,1.031,9.71,2.569,14.331c0.795,2.389,3.002,6.446,5.265,7.548
				L121.735,119.716z"/>
			<path style="fill:#FFC3C2;" d="M121.751,107.106c-2.016,2.069-5.326,3.426-8.215,3.458c-2.889,0.032-5.687-0.921-8.473-1.689
				c-0.241,1.342-0.923,2.602-1.916,3.537c-0.993,0.935-2.588,1.559-3.942,1.718c0.398,2.605,0.388,5.272-0.031,7.874
				c-0.089,0.552-0.461,1.054-0.997,1.21c-0.938,0.273-1.561-0.689-2.018-1.467c-0.52-0.885-1.163-1.73-2.036-2.272
				c-0.873-0.542-2.01-0.736-2.94-0.301c-0.76,0.356-1.299,1.091-1.55,1.891c-0.251,0.801-0.241,1.662-0.122,2.493
				c0.2,1.385,0.712,2.746,1.618,3.813c0.905,1.066,2.227,1.812,3.625,1.869c1.398,0.057,2.789-0.506,3.484-1.72l0.061,0.254
				c0.101,0.417,0.232,0.822,0.381,1.217c1.245,3.303,4.097,5.78,7.61,6.515c1.765,0.369,3.726,0.723,5.725,1.026
				c0.983,0.149,1.971,0.289,2.956,0.406c3.756,0.445,7.214-2.102,7.873-5.826C124.191,123.506,124.638,114.643,121.751,107.106z"/>
			<g>
				<path style="fill:#FFC3C2;" d="M98.68,128.992v13.256c2.45,3.371,6.508,5.652,10.668,5.908c1.352,0.084,2.826-0.072,3.832-0.98
					c0.812-0.733,1.19-1.914,0.955-2.982c-0.173-0.786-0.674-1.489-1.343-1.934c-0.478-0.318-0.776-0.842-0.776-1.416v-4.311
					c-1.999-0.303-3.96-0.657-5.725-1.026C102.777,134.772,99.925,132.296,98.68,128.992z"/>
				<path style="fill:#FFA8A7;" d="M107.538,138.426c1.463,0.405,2.966,0.627,4.477,0.794v-2.686
					c-1.999-0.303-3.96-0.657-5.725-1.026c-3.303-0.691-6.003-2.932-7.351-5.942c0.35,2.062,1.246,4.036,2.684,5.549
					C103.199,136.773,105.334,137.815,107.538,138.426z"/>
			</g>
			<g>
				<polygon style="fill:#FFA8A7;" points="115.12,118.44 119.986,124.333 115.521,125.911 				"/>
				<path style="fill:#263238;" d="M108.247,119.178c-0.005,0.738,0.59,1.34,1.328,1.345c0.738,0.005,1.34-0.59,1.345-1.328
					c0.005-0.738-0.59-1.34-1.328-1.345C108.854,117.845,108.251,118.439,108.247,119.178z"/>
				<path style="fill:#263238;" d="M119.47,118.816c-0.005,0.738,0.59,1.34,1.328,1.345c0.738,0.005,1.34-0.59,1.345-1.328
					c0.005-0.738-0.59-1.34-1.328-1.345C120.077,117.483,119.475,118.077,119.47,118.816z"/>
				<path style="fill:#263238;" d="M118.764,112.884c1.193,0.135,2.386,0.27,3.579,0.405c-0.074-0.758-0.754-1.428-1.501-1.574
					C120.094,111.569,119.118,112.21,118.764,112.884z"/>
				<path style="fill:#263238;" d="M110.776,112.88c-1.15,0.343-2.301,0.687-3.451,1.03c-0.061-0.759,0.49-1.539,1.2-1.815
					C109.234,111.82,110.309,112.279,110.776,112.88z"/>
			</g>
			<g>
				<path style="fill:#FFA8A7;" d="M109.992,127.848c1.244,0.605,2.487,1.21,3.731,1.814c-0.543,0.848-1.911,1.217-2.829,0.804
					C109.976,130.054,109.719,128.817,109.992,127.848z"/>
				<path style="opacity:0.3;" d="M109.992,127.848c1.244,0.605,2.487,1.21,3.731,1.814c-0.543,0.848-1.911,1.217-2.829,0.804
					C109.976,130.054,109.719,128.817,109.992,127.848z"/>
				<path style="fill:#FFA8A7;" d="M112.189,130.588c-0.448,0.079-0.911,0.05-1.295-0.122c-0.721-0.324-1.029-1.155-0.998-1.966
					c0.53,0.003,1.06,0.175,1.471,0.511C111.839,129.398,112.129,129.982,112.189,130.588z"/>
			</g>
		</g>
		<g>
			<path style="fill:#FFC3C2;" d="M75.943,220.844l-16.546-29.043c-1.521-3.057-1.627-6.626-0.291-9.768l9.203-21.641
				c3.017-7.095,8.812-12.643,16.032-15.348l2.317-0.868c1.32,12.979-2.602,19.235-14.48,41.782c0,0,6.258,21.028,11.152,30.377
				c3.842,1.807,7.516,4.472,10.465,7.589c0.653,0.69,0.698,1.757,0.105,2.499l-0.021,0.026c-0.525,0.657-1.442,0.858-2.189,0.472
				c-1.594-0.823-3.178-1.669-4.777-2.479c1.672,3.589,3.725,7.159,6.206,10.278c0.596,0.749,0.534,1.826-0.121,2.524l-0.019,0.021
				c-0.434,0.463-1.072,0.682-1.7,0.589c-1.737-0.258-3.457-0.509-5.18-0.762c-3.051-0.448-5.68-2.376-7.036-5.146
				C77.355,228.459,76.262,224.57,75.943,220.844z"/>
		</g>
		<path style="fill:#BA68C8;" d="M86.657,144.176c-10.067,3.452-15.766,5.745-23.757,27.427c3.996,6.185,15.011,5.351,15.011,5.351
			C92.226,155.342,86.657,144.176,86.657,144.176z"/>
		<path style="opacity:0.3;fill:#FFFFFF;" d="M86.657,144.176c-10.067,3.452-15.766,5.745-23.757,27.427
			c3.996,6.185,15.011,5.351,15.011,5.351C92.226,155.342,86.657,144.176,86.657,144.176z"/>
		<path style="fill:#FFC3C2;" d="M167.322,138.269c-0.08-0.178-0.08-0.465,0.053-0.929c0.778-2.699,1.555-5.261,0.077-6.333
			c-0.42-0.305-1.016-0.098-1.234,0.373c-0.588,1.269-1.979,3.538-2.776,5.05c-0.497,0.942-0.714,2.327-0.981,3.718l4.851-1.868
			L167.322,138.269z"/>
	</g>
</g>
<g id="Character_3">
	<g>
		<path style="fill:#FFA8A7;" d="M146.353,259.69c-0.232-0.842,0.165-4.698-0.764-5.356c-0.93-0.659,0.814-2.053,2.499-0.659
			C149.772,255.07,146.353,259.69,146.353,259.69z"/>
		<g>
			<g>
				<polygon style="fill:#F0F0F0;" points="147.472,231.19 147.558,261.47 159.044,254.839 158.958,224.559 				"/>
			</g>
			<g>
				<g>
					<polygon style="fill:#BA68C8;" points="148.661,231.867 148.678,237.733 157.793,232.47 157.776,226.604 					"/>
				</g>
				<g>
					<polygon style="fill:#BA68C8;" points="148.682,239.095 148.699,244.961 157.813,239.698 157.797,233.832 					"/>
				</g>
				<g>
					<polygon style="fill:#BA68C8;" points="148.702,246.323 148.719,252.189 157.834,246.926 157.817,241.06 					"/>
				</g>
				<g>
					<polygon style="fill:#BA68C8;" points="148.723,253.557 148.74,259.417 157.855,254.154 157.838,248.295 					"/>
				</g>
			</g>
			<g>
				<g style="opacity:0.6;">
					<polygon style="fill:#FFFFFF;" points="148.661,231.867 148.678,237.733 157.793,232.47 157.776,226.604 					"/>
				</g>
				<g style="opacity:0.4;">
					<polygon style="fill:#FFFFFF;" points="148.682,239.095 148.699,244.961 157.813,239.698 157.797,233.832 					"/>
				</g>
				<g style="opacity:0.2;">
					<polygon style="fill:#FFFFFF;" points="148.702,246.323 148.719,252.189 157.834,246.926 157.817,241.06 					"/>
				</g>
			</g>
		</g>
		<path style="fill:#E0E0E0;" d="M74.661,256.561l-16.655,37.76l8.493,9.301L63.48,316.32l-16.778-14.568
			c-3.083-2.678-3.994-7.087-2.224-10.767l13.481-28.022c1.952-4.058,6.091-6.605,10.593-6.519L74.661,256.561z"/>
		<path style="opacity:0.3;" d="M54.608,298.962c0,0,2.665-2.209,3.399-4.641l1.47,1.618
			C58.706,297.122,57.157,298.402,54.608,298.962z"/>
		<g>
			<g>
				<path style="fill:#263238;" d="M86.518,457.352c0.698,1.466,2.914,2.819,5.339,3.219c2.425,0.4,4.891-0.125,7.326-0.465
					c3.618-0.505,7.293-0.599,10.933-0.279c2.266,0.199,4.528,0.557,6.802,0.486c2.274-0.071,4.611-0.615,6.395-2.027
					c1.265-1.001,2.176-2.505,2.4-4.08c0.296,2.053-0.755,4.201-2.4,5.503c-1.784,1.412-4.121,1.955-6.395,2.026
					c-2.274,0.071-4.536-0.287-6.802-0.486c-3.64-0.319-7.315-0.225-10.933,0.279c-2.434,0.339-5.074,1.037-7.498,0.638
					c-2.425-0.4-4.64-1.753-5.339-3.219L86.518,457.352z"/>
				<g>
					<path style="fill:#FFFFFF;" d="M113.056,453.027c-2.04,0-1.29-3.019-3.231-5.042c0.789,0.045,1.582,0.059,2.375,0.057
						C113.945,450.555,114.434,453.027,113.056,453.027z"/>
					<path style="fill:#FFFFFF;" d="M108.818,452.869c-2.052,0-1.513-3.599-3.529-5.698c0.46,0.158,0.926,0.296,1.397,0.402
						c0.402,0.09,0.807,0.159,1.213,0.219C109.695,450.337,110.213,452.869,108.818,452.869z"/>
					<path style="fill:#455A64;" d="M88.627,445.971c0.138-0.665,0.516-1.257,1.061-1.662l11.024-0.275
						c1.127,1.505,2.785,2.521,4.576,3.138c2.017,2.099,1.478,5.698,3.529,5.698c1.395,0,0.877-2.532-0.92-5.077
						c0.638,0.094,1.281,0.155,1.926,0.193c1.941,2.023,1.191,5.042,3.231,5.042c1.378,0,0.889-2.472-0.856-4.985
						c0.515-0.002,1.03-0.008,1.544-0.015c0.467-0.007,0.938-0.039,1.41-0.077c4.053,3.206,4.399,6.685,3.875,12.142
						c-0.699,0.125-1.408,0.199-2.113,0.221c-2.274,0.071-4.536-0.288-6.802-0.486c-3.64-0.319-7.315-0.225-10.933,0.279
						c-2.434,0.339-4.901,0.865-7.326,0.465c-2.425-0.4-4.64-1.753-5.339-3.219L88.627,445.971z"/>
					<path style="fill:#FFFFFF;" d="M115.155,447.949c1.854-0.151,3.729-0.435,5.512,0c2.236,0.546,4.377,2.09,4.96,4.317
						c0.168,0.64,0.179,1.295,0.087,1.94c-0.225,1.574-1.135,3.078-2.4,4.08c-1.231,0.974-2.727,1.528-4.283,1.805
						C119.553,454.634,119.208,451.155,115.155,447.949z"/>
				</g>
				<path style="fill:#FFA8A7;" d="M101.027,440.893v5.312c0,1.205-0.977,2.182-2.182,2.182h-5.558
					c-1.932,0-3.515-1.533-3.579-3.463l-0.132-4.03H101.027z"/>
			</g>
			<g>
				<path style="fill:#263238;" d="M64.29,438.531c0.663,1.327,1.867,2.223,3.345,2.341c1.447,0.116,3.006-0.262,4.232-1.041
					c1.912-1.214,2.658-3.125,3.962-4.847c1.301-1.717,2.967-3.12,4.61-4.502c1.736-1.46,3.476-3.039,4.405-5.108
					c0.264-0.587,0.434-1.225,0.522-1.873c0.169,1.199-0.023,2.484-0.522,3.594c-0.929,2.069-2.67,3.648-4.405,5.108
					c-1.643,1.382-3.309,2.785-4.61,4.502c-1.304,1.721-2.05,3.633-3.962,4.846c-1.227,0.779-2.785,1.157-4.232,1.041
					c-1.478-0.119-2.682-1.014-3.345-2.341c-0.228-0.456-0.239-1.808-0.201-2.961C64.115,437.839,64.175,438.3,64.29,438.531z"/>
				<g>
					<path style="fill:#FFFFFF;" d="M76.815,426.873c0.158,0.276,0.334,0.597,0.269,0.909c-0.065,0.311-0.302,0.581-0.602,0.686
						c-0.422,0.147-0.898-0.033-1.24-0.321c-0.342-0.288-0.584-0.672-0.86-1.023c-0.731-0.933-1.725-1.658-2.837-2.069
						c-0.544-0.202-1.117-0.326-1.696-0.374c0.46-0.419,0.919-0.838,1.379-1.258c0.867,0.054,1.726,0.248,2.513,0.617
						C75.024,424.639,76.114,425.643,76.815,426.873z"/>
					<path style="fill:#FFFFFF;" d="M76.521,422.491c1.282,0.6,2.372,1.605,3.074,2.834c0.158,0.276,0.334,0.597,0.269,0.908
						c-0.065,0.312-0.302,0.581-0.602,0.686c-0.422,0.147-0.898-0.033-1.239-0.321c-0.342-0.288-0.585-0.672-0.86-1.023
						c-0.731-0.933-1.724-1.658-2.836-2.069c-0.886-0.328-1.845-0.447-2.786-0.368c0.454-0.414,0.909-0.829,1.363-1.243
						C74.135,421.773,75.399,421.966,76.521,422.491z"/>
					<path style="fill:#FFFFFF;" d="M73.772,421.111c1.313-1.168,2.695-2.271,4.328-2.891c1.975-0.75,4.425-0.643,5.948,0.821
						c1.171,1.126,1.539,2.826,1.318,4.461c-0.088,0.647-0.258,1.286-0.522,1.873c-0.353,0.786-0.824,1.501-1.367,2.167
						C82.948,422.794,78.826,420.571,73.772,421.111z"/>
					<path style="fill:#455A64;" d="M64.179,433.875c0.123-1.701,0.214-3.171,1.079-4.641l2.68-2.811
						c0.637-0.581,1.274-1.162,1.911-1.743c0.579,0.049,1.151,0.173,1.696,0.374c1.112,0.411,2.105,1.136,2.837,2.069
						c0.275,0.351,0.518,0.736,0.86,1.023c0.342,0.288,0.818,0.467,1.24,0.321c0.301-0.104,0.537-0.374,0.602-0.686
						c0.065-0.311-0.111-0.632-0.269-0.909c-0.702-1.229-1.791-2.234-3.074-2.834c-0.787-0.368-1.646-0.563-2.513-0.617
						c0.104-0.095,0.207-0.189,0.311-0.283c0.942-0.079,1.9,0.04,2.786,0.368c1.112,0.411,2.105,1.136,2.836,2.069
						c0.276,0.352,0.519,0.736,0.86,1.023c0.341,0.288,0.817,0.467,1.239,0.321c0.3-0.104,0.538-0.374,0.602-0.686
						c0.065-0.311-0.111-0.632-0.269-0.908c-0.702-1.23-1.791-2.234-3.074-2.834c-1.122-0.525-2.386-0.718-3.619-0.596
						c0.017-0.015,0.034-0.031,0.05-0.046c0.271-0.247,0.544-0.493,0.82-0.738c5.054-0.54,9.176,1.683,9.705,6.43
						c-0.885,1.085-1.962,2.036-3.038,2.941c-1.643,1.382-3.309,2.785-4.61,4.502c-1.304,1.722-2.05,3.633-3.962,4.847
						c-1.227,0.779-2.785,1.157-4.232,1.041c-1.478-0.119-2.682-1.014-3.345-2.341c-0.115-0.231-0.175-0.692-0.201-1.239
						C64.03,436.049,64.144,434.358,64.179,433.875z"/>
				</g>
				<path style="fill:#FFA8A7;" d="M73.853,425.479l-0.315,5.699c-3.598,2.075-7.38,0.945-8.641-0.368l-0.236-5.332H73.853z"/>
			</g>
			<path style="fill:#37474F;" d="M66.225,303.166c0.212-0.278,0.386-0.581,0.541-0.892c11.265,5.936,24.785,7.492,37.094,4.216
				c2.629,19.556,4.887,52.67,3.499,74.517c-1.153,25.432-5.832,61.443-5.832,61.443c-6.104,1.831-10.681,0.712-12.411-0.611
				c-2.034-25.228-6.51-42.522-3.052-59.205c-2.306-11.665-3.798-26.313-3.798-26.313l-1.764,25.771l-5.968,45.302
				c-5.832,2.984-10.715-0.543-10.715-0.543c-4.34-25.907-5.968-43.461-2.17-56.318C55.854,328.023,55.558,317.146,66.225,303.166z"
				/>
			<path style="opacity:0.3;" d="M79.699,351.227l-3.198-13.421c-3.73-0.61-9.562-3.052-12.627-8.169
				c4.384,3.397,9.929,5.456,15.476,5.456l2.916,21.227l-0.621,9.071l-0.25-3.301C81.117,358.431,80.55,354.798,79.699,351.227z"/>
		</g>
		<path style="fill:#FFFFFF;" d="M89.35,257.1l9.328,1.835c2.062,3.772,4.163,7.316,6.224,11.088c1.553,2.842,3.151,5.863,3.033,9.1
			c-0.125,3.444-2.402,6.719-5.587,8.037l4.85,32.124c-12.596,11.434-45.005,3.257-48.938-0.134c1.693-8.581,5.4-11.966,7.34-20.972
			c1.552-7.204-1.484-15.109-1.998-17.482c-0.751-3.468-1.506-6.962-1.578-10.51c-0.072-3.548,0.581-7.194,2.462-10.204
			c0.019-0.03,0.038-0.06,0.057-0.09c2.418-3.795,7.005-5.621,11.449-4.915L89.35,257.1z"/>
		<g>
			<path style="fill:#37474F;" d="M74.661,218.132c-4.473,2.978-7.172,8.437-6.82,13.8c0.202,3.087,1.334,6.126,0.985,9.199
				c-0.205,1.808-0.918,3.638-0.443,5.394c0.396,1.468,1.585,2.618,2.934,3.321c1.348,0.703,4.499,0.52,5.988,0.829
				c4.546,4.133,10.259,2.585,13.89-1.105c3.631-3.69,9.517-17.542,9.517-17.542c1.671-2.63,2.733-5.931,2.866-9.044
				c0.078-1.812-0.167-3.747-1.309-5.156c-1.142-1.409-3.403-2.014-4.82-0.883c1.347-1.044,0.378-3.459-1.027-4.425
				c-1.405-0.965-3.294-0.848-4.93-0.369c-1.636,0.479-3.18,1.276-4.857,1.578c-2.211,0.397-4.493-0.094-6.727,0.139
				C77.673,214.101,74.877,215.896,74.661,218.132z"/>
			<polygon style="fill:#FF9192;" points="101.656,236.132 104.496,241.068 101.386,242.218 			"/>
			<path style="fill:#FFA8A7;" d="M101.977,233.931c-0.456-4.33-1.724-8.413-4.543-10.483c0.977,5.676-0.977,12.169-3.247,15.495
				c-0.274-1.427-1.024-2.735-2.098-3.713c-1.075-0.978-2.698-1.431-4.035-0.861c-0.944,0.403-1.644,1.259-2.029,2.21
				c-0.75,1.855-0.32,4.13,1.056,5.584c1.375,1.454,3.623,2.009,5.517,1.363c-0.638,3.866-3.939,7.017-7.765,7.865
				c-2.507,0.555-5.127,0.222-7.529-0.716l-1.174,5.836C80.883,261.579,89,258.174,89,258.174l1.069-5.742
				c9.345,0.554,10.216,0.396,11.245-4.751C101.88,244.853,102.533,239.208,101.977,233.931z"/>
			<path style="fill:#37474F;" d="M92.598,243.526c-0.06,1.76-0.022,3.44-0.082,5.201c-0.063,1.852-0.117,3.762,0.541,5.495
				c0.658,1.733,2.216,3.262,4.069,3.295c-3.039,2.477-7.487,3.188-11.232,2.029c-3.745-1.159-6.823-4.277-7.932-8.037
				c-0.393,2.743,0.714,5.604,2.651,7.586c-3.343,0.982-7.251,0.069-9.917-2.174c-2.666-2.244-4.106-5.863-3.71-9.325
				c0.278-2.425,1.375-4.667,2.134-6.987c0.76-2.32,1.162-4.946,0.086-7.137c2.101,2.595,4.741,5.227,7.245,7.437
				c2.504,2.209,5.441,4.02,8.699,4.752c1.212,0.272,2.479,0.392,3.696,0.14C90.062,245.55,91.906,244.557,92.598,243.526z"/>
			<path style="opacity:0.2;" d="M79.05,223.448c0,5.002-4.055,9.056-9.056,9.056c-0.732,0-1.44-0.096-2.122-0.26
				c-0.009-0.104-0.024-0.208-0.031-0.312c-0.352-5.363,2.346-10.822,6.82-13.8c0.065-0.676,0.384-1.302,0.834-1.866
				C77.653,217.921,79.05,220.518,79.05,223.448z"/>
			<path style="fill:#37474F;" d="M62.099,220.398c0,5.001,4.054,9.056,9.056,9.056c5.002,0,9.056-4.055,9.056-9.056
				c0-5.002-4.055-9.056-9.056-9.056C66.153,211.341,62.099,215.396,62.099,220.398z"/>
		</g>
		<g>
			<path style="fill:#FFA8A7;" d="M151.095,273.136c-7.309,11.219-15.238,20.839-20.002,25.704c-1.645,1.68-4.253,1.952-6.216,0.658
				c-10.159-6.698-18.557-18.056-18.557-18.056l11.009-7.569l9.535,12.386l18.029-17.736l1.188-9.856
				c0.103-0.853,0.65-1.588,1.439-1.93l5.078-2.204c0.604-0.262,1.288-0.267,1.896-0.013l2.965,1.238
				c0.775,0.324,1.044,1.288,0.547,1.966l0,0c-0.324,0.441-0.889,0.632-1.413,0.478l-1.466-0.431l3.445,2.557
				c0.691,0.513,1.098,1.323,1.098,2.183v1.766c0,0.909-0.454,1.758-1.211,2.262l-0.416,0.277c-0.681,0.454-1.604,0.228-1.999-0.488
				l0,0C155.402,270.046,151.095,273.136,151.095,273.136z"/>
			<path style="fill:#F28F8F;" d="M155.127,257.772l-0.92-0.611c-0.327-0.217-0.727-0.297-1.112-0.22l-4.2,0.831l3.928-1.353
				c0.611-0.211,1.288-0.003,1.676,0.514L155.127,257.772z"/>
			<path style="fill:#F28F8F;" d="M156.045,266.329c0.386-1.38,0.609-3.232,0-3.913l1.716,0.945l-0.189,1.758L156.045,266.329z"/>
		</g>
		<path style="fill:#FFFFFF;" d="M134.961,276.289c-0.741-0.185-1.532,0.026-2.083,0.553l-2.525,2.413
			c-0.52,0.497-0.767,1.215-0.662,1.926l0.034,0.229l0.729-0.689c8.994,2.858,8.018,11.852,8.018,11.852l-1.268,1.611
			c0.801,0.139,1.613-0.172,2.118-0.809l3.141-3.966c0.333-0.421,0.505-0.941,0.478-1.477
			C142.81,285.404,141.84,278.006,134.961,276.289z"/>
		<path style="fill:#F0F0F0;" d="M134.961,276.289c-0.741-0.185-1.532,0.026-2.083,0.553l-2.525,2.413
			c-0.52,0.497-0.767,1.215-0.662,1.926l0.034,0.229l0.729-0.689c8.994,2.858,8.018,11.852,8.018,11.852l-1.268,1.611
			c0.801,0.139,1.613-0.172,2.118-0.809l3.141-3.966c0.333-0.421,0.505-0.941,0.478-1.477
			C142.81,285.404,141.84,278.006,134.961,276.289z"/>
		<path style="fill:#E0E0E0;" d="M130.453,280.721l-0.729,0.689l-3.035,2.867l-1.064-1.642l-12.295-16.012
			c-3.33-4.337-8.266-7.152-13.694-7.809l-1.642-0.199c0,0-3.297,13.816,3.768,21.508l13.501,14.287
			c2.236,2.366,5.975,4.995,9.017,6.955c2.737,1.764,6.362,1.158,8.376-1.401l5.816-7.39
			C138.471,292.573,139.447,283.579,130.453,280.721z"/>
	</g>
</g>
<g id="Character_2_1_">
	<g>
		<polygon style="fill:#9C5756;" points="200.346,146.251 203.964,149.605 197.74,184.216 193.9,206.787 180.686,208.326 
			186.091,184.216 196.325,144.314 		"/>
		<path style="fill:#BA68C8;" d="M195.101,204.021c-9.11-3.404-15.071,1.38-15.071,1.38l-1.491,38.66l16.259-9.304L195.101,204.021z
			"/>
		<path style="fill:#263238;" d="M195.101,204.021c-9.11-3.404-15.071,1.38-15.071,1.38l-1.491,38.66l16.259-9.304L195.101,204.021z
			"/>
		<path style="opacity:0.1;fill:#FFFFFF;" d="M195.101,204.021c-9.11-3.404-15.071,1.38-15.071,1.38l-1.491,38.66l16.259-9.304
			L195.101,204.021z"/>
		<g>
			<g>
				<path style="fill:#BA68C8;" d="M203.215,92.865c-1.497-0.864-2.717-0.169-2.722,1.558l-0.48,55.554
					c-0.005,1.727,1.207,3.826,2.704,4.69l66.869,38.607c1.497,0.864,2.717,0.169,2.722-1.558l0.48-55.554
					c0.005-1.727-1.207-3.826-2.704-4.69L203.215,92.865z"/>
			</g>
			<g>
				<g style="enable-background:new    ;">
					<g>
						<polygon style="fill:#FFFFFF;" points="224.375,121.149 206.208,135.454 206.169,149.428 266.592,184.314 266.632,170.339 
							255.117,147.468 244.777,155.495 248.432,166.854 243.126,156.768 						"/>
					</g>
					<g>
						<path style="fill:#FFFFFF;" d="M244.222,128.193c-2.844-1.641-5.157-0.323-5.167,2.945c-0.009,3.268,2.29,7.249,5.133,8.891
							c2.844,1.642,5.158,0.323,5.167-2.944C249.365,133.816,247.067,129.835,244.222,128.193z"/>
					</g>
				</g>
			</g>
		</g>
		<path style="fill:#9C5756;" d="M242.772,225.9l14.355-4.785l9.453-35.699c0.221-1.044,0.128-2.131-0.267-3.122l-0.994-2.49
			c-0.524-1.312-0.771-2.718-0.725-4.13l0.178-5.458c0.029-0.898,0.766-1.611,1.664-1.611l0,0c0.806,0,1.496,0.577,1.639,1.37
			l0.854,4.737l2.002,2.302l1.621-6.498v-8.46l4.275,6.167c1.098,1.594,1.536,3.551,1.221,5.461l-1.711,10.365l-4.598,40.129
			c-0.678,5.92-4.587,10.974-10.147,13.12l-15.083,5.82L242.772,225.9z"/>
		<g>
			<g>
				<g>
					<path style="fill:#263238;" d="M212.008,443.083c0.778,2.45,3.464,3.851,6.026,4.055c2.562,0.203,5.093-0.517,7.622-0.975
						c5.662-1.026,11.122-0.009,16.769-0.142c1.853-0.043,3.722-0.129,5.515-0.599c1.793-0.471,3.523-1.359,4.715-2.779
						c0.704-0.838,1.186-1.88,1.357-2.956c0.277,1.617-0.293,3.345-1.357,4.612c-1.192,1.42-2.922,2.308-4.715,2.779
						c-1.793,0.471-3.662,0.556-5.515,0.599c-5.647,0.133-11.107-0.884-16.769,0.142c-2.529,0.458-5.06,1.178-7.622,0.975
						c-2.562-0.204-5.248-1.606-6.026-4.055c-0.268-0.843-0.285-1.725-0.197-2.61C211.85,442.451,211.909,442.77,212.008,443.083z"
						/>
					<path style="fill:#37474F;" d="M212.154,438.391c0.347-1.715,0.694-3.43,1.042-5.145c0.183-0.907,0.376-1.837,0.872-2.618
						c0.496-0.782,1.369-1.394,2.29-1.309c3.101-0.413,7.461-1.535,10.038,0.239c4.033,2.776,8.974,4.211,13.868,4.027
						c2.562-0.096,5.127-0.621,7.671-0.309c2.545,0.312,5.193,1.729,5.948,4.179c0.224,0.725,0.25,1.488,0.132,2.234
						c-0.171,1.076-0.654,2.118-1.357,2.956c-1.192,1.42-2.922,2.308-4.715,2.779c-1.793,0.471-3.662,0.556-5.515,0.599
						c-5.647,0.133-11.107-0.884-16.769,0.142c-2.529,0.458-5.06,1.178-7.622,0.975c-2.562-0.204-5.248-1.605-6.026-4.055
						c-0.099-0.313-0.158-0.632-0.197-0.954C211.665,440.9,211.905,439.621,212.154,438.391z"/>
				</g>
				<path style="fill:#9C5756;" d="M227.146,424.169l0.221,6.702c0.047,1.424-1.039,2.646-2.461,2.74
					c-2.302,0.152-4.544,0.143-6.755-0.065c-1.882-0.177-3.353-1.703-3.454-3.59l-0.266-4.949L227.146,424.169z"/>
			</g>
			<g>
				<g>
					<path style="fill:#263238;" d="M183.387,420.603c0.07,0.996,0.308,1.977,0.897,2.768c0.74,0.993,1.945,1.552,3.163,1.78
						c2.941,0.551,6.149-0.77,7.85-3.231c0.843-1.22,1.322-2.656,2.12-3.906c1.107-1.734,2.768-3.028,4.401-4.28
						c1.633-1.252,3.302-2.532,4.435-4.249c1.096-1.662,1.598-3.839,0.848-5.67c0.156,0.224,0.299,0.46,0.415,0.713
						c0.882,1.924,0.36,4.267-0.796,6.037c-1.155,1.771-2.859,3.09-4.525,4.38c-1.666,1.29-3.362,2.624-4.491,4.412
						c-0.814,1.288-1.303,2.769-2.163,4.026c-1.736,2.538-5.009,3.899-8.01,3.331c-1.242-0.235-2.473-0.811-3.228-1.836
						c-0.796-1.08-0.964-2.504-0.938-3.85C183.368,420.887,183.381,420.746,183.387,420.603z"/>
					<path style="fill:#37474F;" d="M185.42,412.19c2.037-3.571,6.239-6.169,9.48-8.698c1.839-1.435,3.957-2.66,6.282-2.853
						c2.325-0.193,4.871,0.873,5.852,2.99c0.028,0.061,0.043,0.125,0.068,0.186c0.751,1.831,0.248,4.008-0.848,5.67
						c-1.132,1.718-2.802,2.997-4.435,4.249c-1.633,1.252-3.294,2.546-4.401,4.28c-0.798,1.25-1.277,2.686-2.12,3.906
						c-1.701,2.462-4.909,3.783-7.85,3.231c-1.218-0.228-2.423-0.787-3.163-1.78c-0.589-0.791-0.827-1.773-0.897-2.768
						c-0.023-0.323-0.028-0.647-0.022-0.967C183.418,417.035,184.131,414.45,185.42,412.19z"/>
				</g>
				<path style="fill:#9C5756;" d="M194.255,409.094v6.091c-5.558,2.322-9.479-0.419-9.479-0.419l-0.571-5.482L194.255,409.094z"/>
			</g>
			<path style="fill:#BA68C8;" d="M182.606,298.582c-1.827,5.482,0.419,31.52,1.485,56.493c-3.959,9.441-2.893,36.241-0.609,55.275
				c0,0,7.956,2.602,15.113,0.166l4.988-52.7l1.247-29.693c0,0,2.255,26.343,4.844,43.245c-2.436,12.943-3.405,14.758,0.431,55.475
				c0,0,9.923,3.302,17.232-0.283c3.401-55.935,2.151-106.907,1.506-125.237L182.606,298.582z"/>
			<path style="opacity:0.3;" d="M182.606,298.582c-1.827,5.482,0.419,31.52,1.485,56.493c-3.959,9.441-2.893,36.241-0.609,55.275
				c0,0,7.956,2.602,15.113,0.166l4.988-52.7l1.247-29.693c0,0,2.255,26.343,4.844,43.245c-2.436,12.943-3.405,14.758,0.431,55.475
				c0,0,9.923,3.302,17.232-0.283c3.401-55.935,2.151-106.907,1.506-125.237L182.606,298.582z"/>
			<path style="opacity:0.3;" d="M204.069,346.205l1.017-24.217c-6.259,0-12.067-4.678-16.483-9.113
				c4.243,7.558,12.466,10.908,12.466,10.908L204.069,346.205z"/>
		</g>
		<path style="fill:#263238;" d="M229.798,302.807c-27.925,11.7-46.021,1.131-48.478-4.368c1.287-19.305-3.276-41.887-2.925-51.481
			c0.351-9.594,1.528-20.402,16.403-18.235l15.82,1.543l8.026,1.95l9.626,19.992L229.798,302.807z"/>
		<g>
			<path style="fill:#263238;" d="M194.798,221.139c-0.945,0.126-2.442-0.346-3.09-1.046c-0.648-0.699-0.931-1.72-0.733-2.654
				c-0.936-0.17-1.766-0.843-2.126-1.724c-0.359-0.881-0.056-2.114,0.495-2.89c-1.355-0.342-2.54-1.309-3.146-2.569
				c-0.606-1.26-0.718-2.89-0.14-4.163c-1.49-0.38-2.738-1.593-3.161-3.071c-0.423-1.479-0.167-3.399,0.898-4.509
				c-1.301-1.693-1.584-4.111-0.709-6.059c0.875-1.947,3.073-3.359,5.202-3.511c-0.328-2.051,0.472-4.247,2.042-5.608
				c1.57-1.36,3.769-1.742,5.752-1.125c0.68-1.734,2.33-3.05,4.172-3.329c1.842-0.278,3.876,0.293,5.038,1.749
				c0.906-1.042,2.36-1.578,3.726-1.374c1.365,0.204,2.81,0.96,3.372,2.221c1.756-0.784,3.909-0.604,5.51,0.462
				c1.601,1.066,2.523,3.026,2.476,4.949c1.416,0.383,2.466,1.829,2.39,3.294c-0.076,1.465-1.306,2.941-2.754,3.175
				c-1.371,7.504-3.93,14.949-7.419,21.733c-1.568,3.049-3.49,6.143-6.531,7.726C202.773,224.531,197.613,223.551,194.798,221.139z"
				/>
			<path style="fill:#263238;" d="M194.798,221.139c-0.945,0.126-2.442-0.346-3.09-1.046c-0.648-0.699-0.931-1.72-0.733-2.654
				c-0.936-0.17-1.766-0.843-2.126-1.724c-0.359-0.881-0.056-2.114,0.495-2.89c-1.355-0.342-2.54-1.309-3.146-2.569
				c-0.606-1.26-0.718-2.89-0.14-4.163c-1.49-0.38-2.738-1.593-3.161-3.071c-0.423-1.479-0.167-3.399,0.898-4.509
				c-1.301-1.693-1.584-4.111-0.709-6.059c0.875-1.947,3.073-3.359,5.202-3.511c-0.328-2.051,0.472-4.247,2.042-5.608
				c1.57-1.36,3.769-1.742,5.752-1.125c0.68-1.734,2.33-3.05,4.172-3.329c1.842-0.278,3.876,0.293,5.038,1.749
				c0.906-1.042,2.36-1.578,3.726-1.374c1.365,0.204,2.81,0.96,3.372,2.221c1.756-0.784,3.909-0.604,5.51,0.462
				c1.601,1.066,2.523,3.026,2.476,4.949c1.416,0.383,2.466,1.829,2.39,3.294c-0.076,1.465-1.306,2.941-2.754,3.175
				c-1.371,7.504-3.93,14.949-7.419,21.733c-1.568,3.049-3.49,6.143-6.531,7.726C202.773,224.531,197.613,223.551,194.798,221.139z"
				/>
			<polygon style="fill:#F28F8F;" points="221.14,203.277 224.416,208.971 220.828,210.297 			"/>
			<polygon style="fill:#803837;" points="221.14,203.277 224.416,208.971 220.828,210.297 			"/>
			<path style="fill:#9C5756;" d="M220.011,193.36c2.171,7.85,2.502,16.206,0.94,24.201c-0.265,1.362-0.612,2.768-1.505,3.83
				c-1.009,1.2-2.599,1.79-4.161,1.915c-1.563,0.125-3.126-0.163-4.668-0.45v7.41c-5.624,1.326-11.411,1.851-15.82-1.543v-7.583
				c3.161,0.928,6.601,1.314,9.82,0.614c3.886-2.096,4.665-9.194,4.119-11.066c-0.574,0.944-1.962,1.313-3.038,1.068
				c-1.077-0.245-1.969-1.047-2.522-2.003c-0.553-0.956-0.801-2.059-0.941-3.154c-0.171-1.335-0.165-2.784,0.576-3.907
				c0.911-1.38,2.802-1.908,4.4-1.484c1.598,0.425,2.892,1.657,3.704,3.097c0.257,0.455,0.471,0.93,0.652,1.418
				c0.329,0.888,1.618,0.725,1.705-0.217c0.195-2.117-0.18-4.29-1.115-6.2c1.25,0.018,2.426-0.945,3.175-1.945
				c0.749-1.001,0.984-2.366,0.613-3.56C217.825,194.014,220.011,193.36,220.011,193.36z"/>
		</g>
		<path style="fill:#9C5756;" d="M200.034,147.542l2.898-7.488l1.307-5.883c0.167-0.753-0.262-1.51-0.993-1.755l0,0
			c-0.783-0.261-1.631,0.158-1.899,0.939l-1.097,3.194v-9.009l-3.757,6.726c-0.566,1.013-0.817,2.172-0.722,3.328l-0.764,11.862
			L200.034,147.542z"/>
		<path style="fill:#263238;" d="M218.607,232.198c8.899-2.945,24.743-7.728,24.743-7.728c7.112,7.172,6.511,18.747,6.511,18.747
			l-21.592,8.99C207.668,258.734,204.665,236.811,218.607,232.198z"/>
		<path style="opacity:0.1;fill:#FFFFFF;" d="M218.607,232.198c8.899-2.945,24.743-7.728,24.743-7.728
			c7.112,7.172,6.511,18.747,6.511,18.747l-21.592,8.99C207.668,258.734,204.665,236.811,218.607,232.198z"/>
	</g>
</g>
</svg>
